<svg xmlns="http://www.w3.org/2000/svg" xmlns:xlink="http://www.w3.org/1999/xlink" xml:lang="en" height="642.0000000000001pt" width="1147.6399999999999pt" viewBox="-459.04 -528.0 1147.6399999999999 642.0000000000001"><circle cx="-306.0" cy="-244.08" r="4.32" style="stroke:black;fill:none;stroke-width:2.0;stroke-dasharray:-;" /><circle cx="-306.0" cy="-216.72000000000003" r="4.32" style="stroke:black;fill:none;stroke-width:2.0;stroke-dasharray:-;" /><path d="M 0.0,-0.0 L 180.0,-0.0 L 180.0,-460.8 L 0.0,-460.8 L 0.0,-0.0" style="stroke:black;fill:none;stroke-width:2.0;stroke-dasharray:-;stroke-linecap:round;stroke-linejoin:round;" /><path d="M 0.0,-18.0 L -18.0,-18.0" style="stroke:black;fill:none;stroke-width:2.0;stroke-dasharray:-;stroke-linecap:round;stroke-linejoin:round;" /><path d="M 0.0,-78.6857142857143 L -18.0,-78.6857142857143" style="stroke:black;fill:none;stroke-width:2.0;stroke-dasharray:-;stroke-linecap:round;stroke-linejoin:round;" /><path d="M 0.0,-139.37142857142857 L -18.0,-139.37142857142857" style="stroke:black;fill:none;stroke-width:2.0;stroke-dasharray:-;stroke-linecap:round;stroke-linejoin:round;" /><path d="M 0.0,-200.05714285714285 L -18.0,-200.05714285714285" style="stroke:black;fill:none;stroke-width:2.0;stroke-dasharray:-;stroke-linecap:round;stroke-linejoin:round;" /><path d="M 0.0,-260.74285714285713 L -18.0,-260.74285714285713" style="stroke:black;fill:none;stroke-width:2.0;stroke-dasharray:-;stroke-linecap:round;stroke-linejoin:round;" /><path d="M 0.0,-321.42857142857144 L -18.0,-321.42857142857144" style="stroke:black;fill:none;stroke-width:2.0;stroke-dasharray:-;stroke-linecap:round;stroke-linejoin:round;" /><path d="M 0.0,-382.1142857142857 L -18.0,-382.1142857142857" style="stroke:black;fill:none;stroke-width:2.0;stroke-dasharray:-;stroke-linecap:round;stroke-linejoin:round;" /><path d="M 0.0,-442.8 L -18.0,-442.8" style="stroke:black;fill:none;stroke-width:2.0;stroke-dasharray:-;stroke-linecap:round;stroke-linejoin:round;" /><path d="M 180.0,-18.0 L 198.0,-18.0" style="stroke:black;fill:none;stroke-width:2.0;stroke-dasharray:-;stroke-linecap:round;stroke-linejoin:round;" /><path d="M 180.0,-102.96000000000001 L 198.0,-102.96000000000001" style="stroke:black;fill:none;stroke-width:2.0;stroke-dasharray:-;stroke-linecap:round;stroke-linejoin:round;" /><path d="M 180.0,-187.92000000000002 L 198.0,-187.92000000000002" style="stroke:black;fill:none;stroke-width:2.0;stroke-dasharray:-;stroke-linecap:round;stroke-linejoin:round;" /><path d="M 180.0,-272.88000000000005 L 198.0,-272.88000000000005" style="stroke:black;fill:none;stroke-width:2.0;stroke-dasharray:-;stroke-linecap:round;stroke-linejoin:round;" /><path d="M 180.0,-357.84000000000003 L 198.0,-357.84000000000003" style="stroke:black;fill:none;stroke-width:2.0;stroke-dasharray:-;stroke-linecap:round;stroke-linejoin:round;" /><path d="M 180.0,-442.8 L 198.0,-442.8" style="stroke:black;fill:none;stroke-width:2.0;stroke-dasharray:-;stroke-linecap:round;stroke-linejoin:round;" /><path d="M -18.0,-442.8 L -54.0,-442.8 L -90.0,-442.8" style="stroke:black;fill:none;stroke-width:2.0;stroke-dasharray:-;stroke-linecap:round;stroke-linejoin:round;" /><path d="M -90.0,-442.8 L -90.0,-478.8 L -90.0,-514.8000000000001" style="stroke:black;fill:none;stroke-width:2.0;stroke-dasharray:-;stroke-linecap:round;stroke-linejoin:round;" /><path d="M -18.0,-382.1142857142857 L -90.0,-382.1142857142857 L -162.0,-382.1142857142857" style="stroke:black;fill:none;stroke-width:2.0;stroke-dasharray:-;stroke-linecap:round;stroke-linejoin:round;" /><path d="M -162.0,-382.1142857142857 L -162.0,-377.56285714285707 L -162.0,-373.01142857142855" style="stroke:black;fill:none;stroke-width:2.0;stroke-dasharray:-;stroke-linecap:round;stroke-linejoin:round;" /><path d="M -162.0,-373.01142857142855 L -162.0,-369.7714285714286 M -162.0,-361.1314285714286 L -155.88,-337.37142857142857 M -162.0,-333.7714285714286 L -162.0,-330.5314285714286" style="stroke:black;fill:none;stroke-width:2.0;stroke-dasharray:-;stroke-linecap:round;stroke-linejoin:round;" /><path d="M -162.0,-330.5314285714286 L -162.0,-325.98 L -162.0,-321.42857142857144" style="stroke:black;fill:none;stroke-width:2.0;stroke-dasharray:-;stroke-linecap:round;stroke-linejoin:round;" /><path d="M -162.0,-321.42857142857144 L -90.0,-321.42857142857144 L -18.0,-321.42857142857144" style="stroke:black;fill:none;stroke-width:2.0;stroke-dasharray:-;stroke-linecap:round;stroke-linejoin:round;" /><path d="M -18.0,-260.74285714285713 L -126.0,-260.74285714285713 L -234.0,-260.7428571428572" style="stroke:black;fill:none;stroke-width:2.0;stroke-dasharray:-;stroke-linecap:round;stroke-linejoin:round;" /><path d="M -234.0,-260.74285714285713 L -234.0,-256.19142857142856 L -234.0,-251.64000000000001" style="stroke:black;fill:none;stroke-width:2.0;stroke-dasharray:-;stroke-linecap:round;stroke-linejoin:round;" /><path d="M -234.0,-251.64000000000001 L -234.0,-248.4 M -234.0,-239.76 L -227.88,-216.0 M -234.0,-212.4 L -234.0,-209.16" style="stroke:black;fill:none;stroke-width:2.0;stroke-dasharray:-;stroke-linecap:round;stroke-linejoin:round;" /><path d="M -234.0,-209.16 L -234.0,-204.6085714285714 L -234.0,-200.05714285714285" style="stroke:black;fill:none;stroke-width:2.0;stroke-dasharray:-;stroke-linecap:round;stroke-linejoin:round;" /><path d="M -234.0,-200.05714285714285 L -126.0,-200.05714285714285 L -18.0,-200.05714285714285" style="stroke:black;fill:none;stroke-width:2.0;stroke-dasharray:-;stroke-linecap:round;stroke-linejoin:round;" /><path d="M -18.0,-321.42857142857144 L -162.0,-321.42857142857144 L -306.0,-321.4285714285715" style="stroke:black;fill:none;stroke-width:2.0;stroke-dasharray:-;stroke-linecap:round;stroke-linejoin:round;" /><path d="M -306.0,-321.42857142857144 L -306.0,-307.7742857142857 L -306.0,-294.12" style="stroke:black;fill:none;stroke-width:2.0;stroke-dasharray:-;stroke-linecap:round;stroke-linejoin:round;" /><path d="M -306.0,-294.12 L -306.0,-248.4 M -295.2,-244.08 L -295.2,-216.72000000000003 M -295.2,-230.4 L -288.0,-230.4 M -306.0,-212.4 L -306.0,-166.68000000000004" style="stroke:black;fill:none;stroke-width:2.0;stroke-dasharray:-;stroke-linecap:round;stroke-linejoin:round;" /><path d="M -306.0,-166.68000000000004 L -306.0,-153.02571428571432 L -306.0,-139.3714285714286" style="stroke:black;fill:none;stroke-width:2.0;stroke-dasharray:-;stroke-linecap:round;stroke-linejoin:round;" /><path d="M -306.0,-139.37142857142857 L -162.0,-139.37142857142857 L -18.0,-139.37142857142857" style="stroke:black;fill:none;stroke-width:2.0;stroke-dasharray:-;stroke-linecap:round;stroke-linejoin:round;" /><path d="M -18.0,-18.0 L -198.0,-18.000000000000025 L -378.0,-18.000000000000043" style="stroke:black;fill:none;stroke-width:2.0;stroke-dasharray:-;stroke-linecap:round;stroke-linejoin:round;" /><path d="M -378.0,-18.0 L -378.0,-20.275714285714283 L -378.0,-22.551428571428573" style="stroke:black;fill:none;stroke-width:2.0;stroke-dasharray:-;stroke-linecap:round;stroke-linejoin:round;" /><path d="M -378.0,-22.551428571428573 M -378.0,-31.19142857142857 L -384.12,-54.95142857142857 M -378.0,-58.551428571428566" style="stroke:black;fill:none;stroke-width:2.0;stroke-dasharray:-;stroke-linecap:round;stroke-linejoin:round;" /><path d="M -378.0,-43.79142857142858 L -378.0,-46.06714285714286 L -378.0,-48.34285714285715" style="stroke:black;fill:none;stroke-width:2.0;stroke-dasharray:-;stroke-linecap:round;stroke-linejoin:round;" /><path d="M -378.0,-48.34285714285715 L -378.0,-50.61857142857143 L -378.0,-52.894285714285715" style="stroke:black;fill:none;stroke-width:2.0;stroke-dasharray:-;stroke-linecap:round;stroke-linejoin:round;" /><path d="M -378.0,-52.894285714285715 M -378.0,-61.534285714285716 L -384.12,-85.2942857142857 M -378.0,-88.89428571428572" style="stroke:black;fill:none;stroke-width:2.0;stroke-dasharray:-;stroke-linecap:round;stroke-linejoin:round;" /><path d="M -378.0,-74.13428571428572 L -378.0,-76.41000000000003 L -378.0,-78.6857142857143" style="stroke:black;fill:none;stroke-width:2.0;stroke-dasharray:-;stroke-linecap:round;stroke-linejoin:round;" /><path d="M -378.0,-78.6857142857143 L -198.0,-78.6857142857143 L -18.0,-78.6857142857143" style="stroke:black;fill:none;stroke-width:2.0;stroke-dasharray:-;stroke-linecap:round;stroke-linejoin:round;" /><path d="M 198.0,-18.0 L 234.0,-18.0 L 270.0,-18.0" style="stroke:black;fill:none;stroke-width:2.0;stroke-dasharray:-;stroke-linecap:round;stroke-linejoin:round;" /><path d="M 270.0,-18.0 L 270.0,-55.26 L 270.0,-92.52" style="stroke:black;fill:none;stroke-width:2.0;stroke-dasharray:-;stroke-linecap:round;stroke-linejoin:round;" /><path d="M 270.0,-92.52 L 270.0,-248.4 L 261.0,-248.4 L 261.0,-284.40000000000003 L 279.0,-284.40000000000003 L 279.0,-248.4 L 270.0,-248.4 M 270.0,-284.40000000000003 L 270.00000000000006,-440.28000000000003" style="stroke:black;fill:none;stroke-width:2.0;stroke-dasharray:-;stroke-linecap:round;stroke-linejoin:round;" /><path d="M 270.0,-248.4 L 270.0,-284.40000000000003" style="stroke:black;fill:none;stroke-width:2.0;stroke-dasharray:-;stroke-linecap:round;stroke-linejoin:round;" /><path d="M 270.0,-440.28000000000003 L 270.0,-477.54 L 270.0,-514.8000000000001" style="stroke:black;fill:none;stroke-width:2.0;stroke-dasharray:-;stroke-linecap:round;stroke-linejoin:round;" /><path d="M 198.0,-102.96000000000001 L 270.0,-102.96000000000001 L 342.0,-102.96000000000001" style="stroke:black;fill:none;stroke-width:2.0;stroke-dasharray:-;stroke-linecap:round;stroke-linejoin:round;" /><path d="M 342.0,-102.96000000000001 L 342.0,-91.18800000000002 L 342.0,-79.41600000000001" style="stroke:black;fill:none;stroke-width:2.0;stroke-dasharray:-;stroke-linecap:round;stroke-linejoin:round;" /><path d="M 342.0,-79.41600000000001 L 342.0,-42.48000000000001 L 343.4629117898821,-42.44683381018039 L 344.9641865610387,-42.34593035405705 L 346.472180158067,-42.1762594271158 L 347.9551068048736,-41.93824031868263 L 349.38170909131367,-41.63373297406346 L 350.7219168228317,-41.26599879026299 L 351.9474808457466,-40.839631871637735 L 353.0325684882902,-40.36046219448994 L 353.95430806658044,-39.83543272171729 L 354.69327097832775,-39.27245305771934 L 355.2338812226123,-38.6802327282503 L 355.56474371379704,-38.068097599377346 L 355.6788844693111,-37.44579330510033 L 355.5738976085824,-36.82327982702331 L 355.2519960646464,-36.21052155596625 L 354.71996493952173,-35.61727726063862 L 353.98901848653907,-35.05289439045487 L 353.0745637341742,-34.526112048216284 L 351.99587573376914,-34.04487678563869 L 350.7756912763309,-33.61617510442268 L 349.4397296421223,-33.245886193440796 L 348.01615048477726,-32.93865800607543 L 346.53496027676056,-32.69780928977258 L 345.02737982722994,-32.52525963285148 L 343.525186203877,-32.42148900305663 L 342.06004292984596,-32.38552763070625 L 340.6628325739653,-32.41497644968228 L 339.3630058020831,-32.50605766540268 L 338.1879606103266,-32.65369438389476 L 337.16246482492426,-32.851617623532725 L 336.30813404124973,-33.092498453825755 L 335.64297600618795,-33.36810247600999 L 335.1810110474187,-33.669463389273105 L 334.93197655028047,-33.98707198414966 L 334.90112171130914,-34.311076579448326 L 335.089096894674,-34.631490677863354 L 335.4919399236779,-34.9384034632658 L 336.1011595962719,-35.22218870277243 L 336.90391466422875,-35.47370765031486 L 337.8832845034171,-35.68450167486881 L 339.0186257699378,-35.846970553089 L 340.2860075244564,-35.954532668263475 L 341.6587156530979,-36.00176373888363 L 343.107815952624,-35.984511152682316 L 344.60276401107666,-35.89998149618569 L 346.11204902870804,-35.74679943481418 L 347.6038580086154,-35.525036702446535 L 349.046746317146,-35.23621058939949 L 350.4103004798705,-34.88325196069364 L 351.6657792425868,-34.470443478722615 L 352.78671938494665,-34.003329332479936 L 353.74949351725223,-33.488598376088035 L 354.53380810307317,-32.9339431398578 L 355.12313121027074,-32.34789768567036 L 355.50504097421043,-31.739657724396267 L 355.67148742818927,-31.118886786951286 L 355.6189621821662,-30.495512534552258 L 355.3485723732754,-29.879517501584175 L 354.8660173293789,-29.280728681840202 L 354.18146843754914,-28.70861039327584 L 353.3093547496358,-28.172064787313534 L 352.2680588439646,-27.679244207600355 L 351.0795293538518,-27.23737935335678 L 349.76881833013346,-26.852626869322144 L 348.3635531892687,-26.529939574824848 L 346.89335437739703,-26.272962067313752 L 345.3892110249359,-26.0839539008394 L 343.8828277517905,-25.96374195874361 L 342.40595639134114,-25.911703024454983 L 340.98972671925395,-25.92577691776645 L 339.6639902941447,-26.002509919705837 L 338.4566912407435,-26.137127570681777 L 337.393277238314,-26.323635307451855 L 336.49616312962644,-26.55494481766769 L 335.7842584566344,-26.82302344867199 L 335.2725688815505,-27.119063521280182 L 334.97187989464123,-27.433667979719047 L 334.88852947561065,-27.757048464556917 L 335.0242745004572,-28.079231633607144 L 335.3762537097074,-28.390269381933177 L 335.9370480185874,-28.68044852989808 L 336.6948368979042,-28.940495559413854 L 337.6336475294102,-29.161772082921054 L 338.73369148390657,-29.336456924965994 L 339.9717818255207,-29.457710978425897 L 341.3218218503545,-29.519821360510626 L 342.75535515777676,-29.518321829993603 L 344.2421654598523,-29.45008692749461 L 345.7509134860113,-29.313397854507496 L 347.24979755815946,-29.10797870256232 L 348.7072239125029,-28.835002268876583 L 350.0924726389154,-28.497065335912207 L 351.37634520105166,-28.098133935900528 L 352.53177988865446,-27.64345975405995 L 353.5344222294349,-27.13946943257521 L 354.36313833727536,-26.593629108610088 L 355.00046037630403,-26.014287041647027 L 355.4329547512642,-25.410497647284622 L 355.6515052633928,-24.79183064654209 L 355.6515052633928,-24.168169353457962 L 355.4329547512642,-23.549502352715432 L 355.00046037630403,-22.945712958353035 L 354.3631383372755,-22.36637089138997 L 353.534422229435,-21.82053056742484 L 352.5317798886545,-21.31654024594011 L 351.3763452010517,-20.86186606409953 L 350.09247263891547,-20.462934664087843 L 348.70722391250297,-20.12499773112346 L 347.2497975581595,-19.852021297437716 L 345.75091348601137,-19.64660214549254 L 344.24216545985234,-19.509913072505427 L 342.7553551577768,-19.441678170006433 L 341.3218218503546,-19.440178639489403 L 339.9717818255208,-19.50228902157412 L 338.7336914839066,-19.623543075034025 L 337.63364752941027,-19.798227917078968 L 336.69483689790434,-20.019504440586154 L 335.9370480185874,-20.279551470101943 L 335.3762537097074,-20.569730618066842 L 335.0242745004572,-20.880768366392864 L 334.88852947561065,-21.202951535443088 L 334.97187989464123,-21.52633202028097 L 335.2725688815505,-21.840936478719826 L 335.7842584566344,-22.136976551328033 L 336.4961631296264,-22.405055182332305 L 337.39327723831394,-22.63636469254817 L 338.45669124074345,-22.822872429318245 L 339.66399029414464,-22.957490080294193 L 340.9897267192539,-23.03422308223358 L 342.40595639134096,-23.048296975545043 L 343.88282775179044,-22.99625804125642 L 345.3892110249358,-22.876046099160632 L 346.89335437739703,-22.68703793268628 L 348.36355318926866,-22.43006042517519 L 349.7688183301333,-22.107373130677907 L 351.07952935385174,-21.722620646643275 L 352.2680588439645,-21.280755792399688 L 353.30935474963576,-20.78793521268651 L 354.18146843754914,-20.251389606724217 L 354.8660173293789,-19.679271318159877 L 355.3485723732754,-19.08048249841587 L 355.6189621821662,-18.464487465447803 L 355.67148742818927,-17.841113213048782 L 355.50504097421043,-17.220342275603777 L 355.12313121027074,-16.612102314329693 L 354.53380810307317,-16.026056860142262 L 353.7494935172523,-15.471401623912026 L 352.7867193849467,-14.956670667520106 L 351.6657792425868,-14.489556521277434 L 350.4103004798706,-14.076748039306402 L 349.0467463171461,-13.723789410600558 L 347.6038580086155,-13.4349632975535 L 346.11204902870816,-13.213200565185858 L 344.60276401107683,-13.060018503814348 L 343.10781595262404,-12.975488847317711 L 341.65871565309794,-12.958236261116397 L 340.28600752445647,-13.005467331736543 L 339.01862576993784,-13.113029446911021 L 337.8832845034171,-13.275498325131204 L 336.90391466422886,-13.486292349685153 L 336.10115959627194,-13.737811297227584 L 335.4919399236779,-14.02159653673421 L 335.089096894674,-14.328509322136663 L 334.90112171130914,-14.648923420551686 L 334.93197655028047,-14.972928015850345 L 335.1810110474187,-15.290536610726901 L 335.64297600618795,-15.591897523990022 L 336.3081340412497,-15.867501546174255 L 337.1624648249242,-16.108382376467283 L 338.1879606103266,-16.30630561610526 L 339.363005802083,-16.45394233459733 L 340.6628325739652,-16.54502355031774 L 342.06004292984585,-16.574472369293773 L 343.52518620387696,-16.538510996943398 L 345.0273798272299,-16.434740367148553 L 346.5349602767605,-16.262190710227465 L 348.0161504847772,-16.021341993924622 L 349.4397296421223,-15.714113806559237 L 350.77569127633086,-15.343824895577368 L 351.9958757337691,-14.915123214361367 L 353.0745637341742,-14.433887951783754 L 353.98901848653907,-13.907105609545185 L 354.71996493952173,-13.342722739361434 L 355.2519960646464,-12.749478444033812 L 355.5738976085824,-12.136720172976734 L 355.6788844693111,-11.51420669489972 L 355.56474371379704,-10.89190240062272 L 355.23388122261235,-10.279767271749769 L 354.69327097832775,-9.687546942280706 L 353.9543080665805,-9.124567278282761 L 353.0325684882903,-8.59953780551012 L 351.94748084574667,-8.120368128362296 L 350.72191682283176,-7.694001209737044 L 349.3817090913137,-7.326267025936563 L 347.9551068048737,-7.0217596813174055 L 346.472180158067,-6.783740572884225 L 344.96418656103873,-6.614069645942969 L 343.46291178988224,-6.513166189819632 L 342.0000000000001,-6.480000000000022 L 342.0000000000001,30.45599999999997" style="stroke:black;fill:none;stroke-width:2.0;stroke-dasharray:-;stroke-linecap:round;stroke-linejoin:round;" /><path d="M 342.0,30.45599999999999 L 342.0,42.227999999999994 L 342.0,54.0" style="stroke:black;fill:none;stroke-width:2.0;stroke-dasharray:-;stroke-linecap:round;stroke-linejoin:round;" /><path d="M 198.0,-187.92000000000002 L 306.0,-187.92000000000002 L 414.0,-187.92000000000002" style="stroke:black;fill:none;stroke-width:2.0;stroke-dasharray:-;stroke-linecap:round;stroke-linejoin:round;" /><path d="M 414.0,-187.92000000000002 L 414.0,-212.43600000000004 L 414.0,-236.95200000000003" style="stroke:black;fill:none;stroke-width:2.0;stroke-dasharray:-;stroke-linecap:round;stroke-linejoin:round;" /><path d="M 414.0,-236.95200000000003 L 414.0,-333.36000000000007 L 405.0,-333.36000000000007 L 405.0,-369.36000000000007 L 423.0,-369.36000000000007 L 423.0,-333.36000000000007 L 414.0,-333.36000000000007 M 414.0,-369.36000000000007 L 414.0,-465.76800000000003" style="stroke:black;fill:none;stroke-width:2.0;stroke-dasharray:-;stroke-linecap:round;stroke-linejoin:round;" /><path d="M 414.0,-333.36000000000007 L 414.0,-369.36000000000007" style="stroke:black;fill:none;stroke-width:2.0;stroke-dasharray:-;stroke-linecap:round;stroke-linejoin:round;" /><path d="M 414.0,-465.76800000000003 L 414.0,-490.284 L 414.0,-514.8000000000001" style="stroke:black;fill:none;stroke-width:2.0;stroke-dasharray:-;stroke-linecap:round;stroke-linejoin:round;" /><path d="M 198.0,-272.88000000000005 L 342.0,-272.88000000000005 L 486.0,-272.88000000000005" style="stroke:black;fill:none;stroke-width:2.0;stroke-dasharray:-;stroke-linecap:round;stroke-linejoin:round;" /><path d="M 486.0,-272.88000000000005 L 486.0,-248.36400000000003 L 486.0,-223.84800000000004" style="stroke:black;fill:none;stroke-width:2.0;stroke-dasharray:-;stroke-linecap:round;stroke-linejoin:round;" /><path d="M 486.0,-223.84800000000004 L 486.0,-127.44 L 487.4629117898821,-127.40683381018037 L 488.9641865610387,-127.30593035405704 L 490.472180158067,-127.1362594271158 L 491.9551068048736,-126.89824031868261 L 493.38170909131367,-126.59373297406346 L 494.7219168228317,-126.22599879026298 L 495.9474808457466,-125.79963187163773 L 497.0325684882902,-125.32046219448992 L 497.9543080665805,-124.79543272171728 L 498.69327097832775,-124.23245305771934 L 499.2338812226123,-123.64023272825028 L 499.56474371379704,-123.02809759937733 L 499.6788844693111,-122.40579330510033 L 499.5738976085824,-121.78327982702329 L 499.2519960646464,-121.17052155596623 L 498.7199649395218,-120.57727726063862 L 497.98901848653907,-120.01289439045485 L 497.0745637341742,-119.48611204821627 L 495.99587573376925,-119.00487678563869 L 494.7756912763309,-118.57617510442267 L 493.43972964212236,-118.20588619344079 L 492.01615048477726,-117.89865800607542 L 490.53496027676056,-117.65780928977256 L 489.02737982722994,-117.48525963285147 L 487.525186203877,-117.38148900305663 L 486.06004292984596,-117.34552763070624 L 484.6628325739653,-117.37497644968226 L 483.3630058020831,-117.46605766540267 L 482.1879606103267,-117.61369438389474 L 481.16246482492426,-117.81161762353271 L 480.30813404124973,-118.05249845382575 L 479.64297600618795,-118.32810247600997 L 479.1810110474187,-118.62946338927308 L 478.93197655028047,-118.94707198414964 L 478.90112171130914,-119.2710765794483 L 479.089096894674,-119.59149067786335 L 479.4919399236779,-119.89840346326578 L 480.1011595962719,-120.18218870277241 L 480.90391466422875,-120.43370765031484 L 481.8832845034171,-120.6445016748688 L 483.0186257699378,-120.80697055308897 L 484.2860075244564,-120.91453266826346 L 485.6587156530979,-120.96176373888363 L 487.107815952624,-120.9445111526823 L 488.60276401107666,-120.85998149618567 L 490.11204902870804,-120.70679943481417 L 491.6038580086155,-120.48503670244652 L 493.046746317146,-120.19621058939948 L 494.4103004798705,-119.84325196069362 L 495.6657792425868,-119.43044347872261 L 496.78671938494665,-118.96332933247992 L 497.74949351725223,-118.44859837608803 L 498.53380810307317,-117.89394313985778 L 499.12313121027074,-117.30789768567035 L 499.50504097421043,-116.69965772439625 L 499.67148742818927,-116.07888678695129 L 499.6189621821662,-115.45551253455224 L 499.3485723732754,-114.83951750158415 L 498.8660173293789,-114.24072868184018 L 498.18146843754914,-113.66861039327584 L 497.3093547496358,-113.13206478731352 L 496.2680588439646,-112.63924420760034 L 495.0795293538518,-112.19737935335678 L 493.76881833013346,-111.81262686932213 L 492.3635531892687,-111.48993957482483 L 490.89335437739703,-111.23296206731374 L 489.3892110249359,-111.04395390083938 L 487.8828277517905,-110.92374195874359 L 486.40595639134114,-110.87170302445496 L 484.98972671925395,-110.88577691776644 L 483.6639902941448,-110.96250991970581 L 482.4566912407435,-111.09712757068176 L 481.393277238314,-111.28363530745183 L 480.49616312962644,-111.51494481766768 L 479.7842584566344,-111.78302344867197 L 479.2725688815505,-112.07906352128018 L 478.97187989464123,-112.39366797971903 L 478.88852947561065,-112.7170484645569 L 479.0242745004572,-113.03923163360714 L 479.3762537097074,-113.35026938193316 L 479.9370480185874,-113.64044852989807 L 480.6948368979042,-113.90049555941386 L 481.6336475294102,-114.12177208292104 L 482.73369148390657,-114.296456924966 L 483.9717818255207,-114.41771097842589 L 485.3218218503545,-114.47982136051061 L 486.75535515777676,-114.47832182999359 L 488.24216545985234,-114.41008692749459 L 489.7509134860113,-114.27339785450748 L 491.24979755815946,-114.0679787025623 L 492.7072239125029,-113.79500226887657 L 494.0924726389154,-113.45706533591219 L 495.37634520105166,-113.05813393590051 L 496.53177988865446,-112.60345975405993 L 497.5344222294349,-112.0994694325752 L 498.3631383372755,-111.55362910861007 L 499.00046037630403,-110.974287041647 L 499.4329547512642,-110.37049764728462 L 499.6515052633928,-109.75183064654209 L 499.6515052633928,-109.12816935345795 L 499.4329547512642,-108.50950235271542 L 499.00046037630403,-107.90571295835304 L 498.3631383372755,-107.32637089138996 L 497.534422229435,-106.78053056742483 L 496.5317798886545,-106.27654024594008 L 495.3763452010517,-105.82186606409951 L 494.09247263891547,-105.42293466408783 L 492.70722391250297,-105.08499773112345 L 491.2497975581595,-104.81202129743771 L 489.75091348601137,-104.60660214549253 L 488.24216545985234,-104.46991307250542 L 486.7553551577768,-104.4016781700064 L 485.3218218503546,-104.40017863948938 L 483.9717818255208,-104.4622890215741 L 482.7336914839066,-104.58354307503402 L 481.63364752941027,-104.75822791707895 L 480.69483689790434,-104.97950444058614 L 479.9370480185874,-105.23955147010193 L 479.3762537097074,-105.52973061806682 L 479.0242745004572,-105.84076836639285 L 478.88852947561065,-106.16295153544307 L 478.97187989464123,-106.48633202028095 L 479.2725688815505,-106.8009364787198 L 479.7842584566344,-107.09697655132803 L 480.4961631296264,-107.3650551823323 L 481.39327723831394,-107.59636469254815 L 482.45669124074345,-107.78287242931825 L 483.66399029414464,-107.91749008029417 L 484.9897267192539,-107.99422308223357 L 486.4059563913411,-108.00829697554504 L 487.88282775179044,-107.9562580412564 L 489.3892110249358,-107.83604609916063 L 490.89335437739703,-107.64703793268627 L 492.36355318926866,-107.39006042517518 L 493.7688183301333,-107.06737313067788 L 495.07952935385174,-106.68262064664326 L 496.2680588439645,-106.24075579239968 L 497.30935474963576,-105.7479352126865 L 498.18146843754914,-105.2113896067242 L 498.8660173293789,-104.63927131815986 L 499.3485723732754,-104.04048249841587 L 499.6189621821662,-103.4244874654478 L 499.67148742818927,-102.80111321304877 L 499.50504097421043,-102.18034227560376 L 499.12313121027074,-101.57210231432968 L 498.5338081030732,-100.98605686014226 L 497.7494935172523,-100.43140162391202 L 496.7867193849467,-99.9166706675201 L 495.6657792425868,-99.44955652127742 L 494.4103004798706,-99.0367480393064 L 493.0467463171461,-98.68378941060055 L 491.6038580086155,-98.39496329755349 L 490.11204902870816,-98.17320056518585 L 488.60276401107683,-98.02001850381433 L 487.10781595262404,-97.93548884731771 L 485.65871565309794,-97.91823626111638 L 484.28600752445647,-97.96546733173653 L 483.01862576993784,-98.07302944691101 L 481.8832845034171,-98.2354983251312 L 480.90391466422886,-98.44629234968515 L 480.10115959627194,-98.69781129722757 L 479.4919399236779,-98.9815965367342 L 479.089096894674,-99.28850932213665 L 478.90112171130914,-99.60892342055168 L 478.93197655028047,-99.93292801585034 L 479.1810110474187,-100.2505366107269 L 479.64297600618795,-100.55189752399002 L 480.30813404124973,-100.82750154617425 L 481.1624648249242,-101.06838237646728 L 482.1879606103266,-101.26630561610524 L 483.363005802083,-101.41394233459732 L 484.6628325739652,-101.50502355031772 L 486.06004292984585,-101.53447236929377 L 487.52518620387696,-101.49851099694338 L 489.0273798272299,-101.39474036714853 L 490.5349602767605,-101.22219071022744 L 492.0161504847772,-100.9813419939246 L 493.4397296421223,-100.67411380655923 L 494.77569127633086,-100.30382489557735 L 495.9958757337691,-99.87512321436135 L 497.0745637341742,-99.39388795178375 L 497.98901848653907,-98.86710560954518 L 498.71996493952173,-98.30272273936141 L 499.2519960646464,-97.7094784440338 L 499.5738976085824,-97.09672017297672 L 499.6788844693111,-96.4742066948997 L 499.56474371379704,-95.85190240062272 L 499.23388122261235,-95.23976727174974 L 498.69327097832775,-94.6475469422807 L 497.9543080665805,-94.08456727828275 L 497.0325684882903,-93.55953780551012 L 495.94748084574667,-93.0803681283623 L 494.72191682283176,-92.65400120973703 L 493.3817090913137,-92.28626702593655 L 491.9551068048737,-91.9817596813174 L 490.472180158067,-91.74374057288422 L 488.9641865610388,-91.57406964594297 L 487.46291178988224,-91.47316618981962 L 486.0000000000001,-91.44 L 486.0000000000001,4.968000000000028" style="stroke:black;fill:none;stroke-width:2.0;stroke-dasharray:-;stroke-linecap:round;stroke-linejoin:round;" /><path d="M 486.0,4.968000000000028 L 486.0,29.48400000000003 L 486.0,54.00000000000003" style="stroke:black;fill:none;stroke-width:2.0;stroke-dasharray:-;stroke-linecap:round;stroke-linejoin:round;" /><path d="M 198.0,-442.8 L 378.0,-442.8 L 558.0,-442.8" style="stroke:black;fill:none;stroke-width:2.0;stroke-dasharray:-;stroke-linecap:round;stroke-linejoin:round;" /><path d="M 558.0,-442.8 L 558.0,-194.4 L 558.0,54.0" style="stroke:black;fill:none;stroke-width:2.0;stroke-dasharray:-;stroke-linecap:round;stroke-linejoin:round;" /><path d="M 198.0,-357.84000000000003 L 414.0,-357.84000000000003 L 630.0,-357.84000000000003" style="stroke:black;fill:none;stroke-width:2.0;stroke-dasharray:-;stroke-linecap:round;stroke-linejoin:round;" /><path d="M 630.0,-357.84000000000003 L 630.0,-151.92000000000002 L 630.0,54.0" style="stroke:black;fill:none;stroke-width:2.0;stroke-dasharray:-;stroke-linecap:round;stroke-linejoin:round;" /><path d="M -432.0,-514.8000000000001 L 126.0,-514.8000000000001 L 684.0,-514.8000000000001" style="stroke:black;fill:none;stroke-width:2.0;stroke-dasharray:-;stroke-linecap:round;stroke-linejoin:round;" /><path d="M -432.0,54.0 L 126.0,54.0 L 684.0,54.0" style="stroke:black;fill:none;stroke-width:2.0;stroke-dasharray:-;stroke-linecap:round;stroke-linejoin:round;" /><text x="-2.6999999999999997" y="-31.7" dominant-baseline="ideographic" fill="black" font-size="11" font-family="sans" text-anchor="end"><tspan x="-2.6999999999999997" dy="11">1</tspan></text><text x="5.3999999999999995" y="-32.0" dominant-baseline="central" fill="black" font-size="14" font-family="sans" text-anchor="start"><tspan x="5.3999999999999995" dy="14">Y37</tspan></text><text x="-2.6999999999999997" y="-92.3857142857143" dominant-baseline="ideographic" fill="black" font-size="11" font-family="sans" text-anchor="end"><tspan x="-2.6999999999999997" dy="11">2</tspan></text><text x="5.3999999999999995" y="-92.6857142857143" dominant-baseline="central" fill="black" font-size="14" font-family="sans" text-anchor="start"><tspan x="5.3999999999999995" dy="14">Y2</tspan></text><text x="-2.6999999999999997" y="-153.07142857142858" dominant-baseline="ideographic" fill="black" font-size="11" font-family="sans" text-anchor="end"><tspan x="-2.6999999999999997" dy="11">3</tspan></text><text x="5.3999999999999995" y="-153.37142857142857" dominant-baseline="central" fill="black" font-size="14" font-family="sans" text-anchor="start"><tspan x="5.3999999999999995" dy="14">Y1</tspan></text><text x="-2.6999999999999997" y="-213.75714285714287" dominant-baseline="ideographic" fill="black" font-size="11" font-family="sans" text-anchor="end"><tspan x="-2.6999999999999997" dy="11">4</tspan></text><text x="5.3999999999999995" y="-214.05714285714285" dominant-baseline="central" fill="black" font-size="14" font-family="sans" text-anchor="start"><tspan x="5.3999999999999995" dy="14">S22</tspan></text><text x="-2.6999999999999997" y="-274.4428571428572" dominant-baseline="ideographic" fill="black" font-size="11" font-family="sans" text-anchor="end"><tspan x="-2.6999999999999997" dy="11">5</tspan></text><text x="5.3999999999999995" y="-274.74285714285713" dominant-baseline="central" fill="black" font-size="14" font-family="sans" text-anchor="start"><tspan x="5.3999999999999995" dy="14">S52</tspan></text><text x="-2.6999999999999997" y="-335.12857142857143" dominant-baseline="ideographic" fill="black" font-size="11" font-family="sans" text-anchor="end"><tspan x="-2.6999999999999997" dy="11">6</tspan></text><text x="5.3999999999999995" y="-335.42857142857144" dominant-baseline="central" fill="black" font-size="14" font-family="sans" text-anchor="start"><tspan x="5.3999999999999995" dy="14">S12</tspan></text><text x="-2.6999999999999997" y="-395.8142857142857" dominant-baseline="ideographic" fill="black" font-size="11" font-family="sans" text-anchor="end"><tspan x="-2.6999999999999997" dy="11">7</tspan></text><text x="5.3999999999999995" y="-396.1142857142857" dominant-baseline="central" fill="black" font-size="14" font-family="sans" text-anchor="start"><tspan x="5.3999999999999995" dy="14">Y36</tspan></text><text x="-2.6999999999999997" y="-456.5" dominant-baseline="ideographic" fill="black" font-size="11" font-family="sans" text-anchor="end"><tspan x="-2.6999999999999997" dy="11">8</tspan></text><text x="5.3999999999999995" y="-456.8" dominant-baseline="central" fill="black" font-size="14" font-family="sans" text-anchor="start"><tspan x="5.3999999999999995" dy="14">A1</tspan></text><text x="182.70000000000002" y="-31.7" dominant-baseline="ideographic" fill="black" font-size="11" font-family="sans" text-anchor="start"><tspan x="182.70000000000002" dy="11">1</tspan></text><text x="174.6" y="-32.0" dominant-baseline="central" fill="black" font-size="14" font-family="sans" text-anchor="end"><tspan x="174.6" dy="14">13</tspan></text><text x="182.70000000000002" y="-116.66000000000003" dominant-baseline="ideographic" fill="black" font-size="11" font-family="sans" text-anchor="start"><tspan x="182.70000000000002" dy="11">2</tspan></text><text x="174.6" y="-116.96000000000001" dominant-baseline="central" fill="black" font-size="14" font-family="sans" text-anchor="end"><tspan x="174.6" dy="14">14</tspan></text><text x="182.70000000000002" y="-201.62000000000003" dominant-baseline="ideographic" fill="black" font-size="11" font-family="sans" text-anchor="start"><tspan x="182.70000000000002" dy="11">3</tspan></text><text x="174.6" y="-201.92000000000002" dominant-baseline="central" fill="black" font-size="14" font-family="sans" text-anchor="end"><tspan x="174.6" dy="14">23</tspan></text><text x="182.70000000000002" y="-286.58000000000004" dominant-baseline="ideographic" fill="black" font-size="11" font-family="sans" text-anchor="start"><tspan x="182.70000000000002" dy="11">4</tspan></text><text x="174.6" y="-286.88000000000005" dominant-baseline="central" fill="black" font-size="14" font-family="sans" text-anchor="end"><tspan x="174.6" dy="14">24</tspan></text><text x="182.70000000000002" y="-371.54" dominant-baseline="ideographic" fill="black" font-size="11" font-family="sans" text-anchor="start"><tspan x="182.70000000000002" dy="11">5</tspan></text><text x="174.6" y="-371.84000000000003" dominant-baseline="central" fill="black" font-size="14" font-family="sans" text-anchor="end"><tspan x="174.6" dy="14">A3</tspan></text><text x="182.70000000000002" y="-456.5" dominant-baseline="ideographic" fill="black" font-size="11" font-family="sans" text-anchor="start"><tspan x="182.70000000000002" dy="11">6</tspan></text><text x="174.6" y="-456.8" dominant-baseline="central" fill="black" font-size="14" font-family="sans" text-anchor="end"><tspan x="174.6" dy="14">A2</tspan></text><text x="93.60000000000001" y="-249.0" dominant-baseline="central" fill="black" font-size="10" font-family="sans" text-anchor="middle"><tspan x="93.60000000000001" dy="10">PNOZ 8</tspan><tspan x="93.60000000000001" dy="10">Pilz 774760</tspan></text><circle cx="-162.0" cy="-365.45142857142855" r="4.32" style="stroke:black;fill:white;stroke-width:2.0;stroke-dasharray:-;" /><circle cx="-162.0" cy="-338.0914285714286" r="4.32" style="stroke:black;fill:white;stroke-width:2.0;stroke-dasharray:-;" /><text x="-161.1" y="-336.9314285714286" dominant-baseline="hanging" fill="black" font-size="10" font-family="sans" text-anchor="middle"><tspan x="-161.1" dy="10">E-stop NC1</tspan></text><circle cx="-234.0" cy="-244.08" r="4.32" style="stroke:black;fill:white;stroke-width:2.0;stroke-dasharray:-;" /><circle cx="-234.0" cy="-216.71999999999997" r="4.32" style="stroke:black;fill:white;stroke-width:2.0;stroke-dasharray:-;" /><text x="-233.1" y="-215.55999999999997" dominant-baseline="hanging" fill="black" font-size="10" font-family="sans" text-anchor="middle"><tspan x="-233.1" dy="10">E-stop NC2</tspan></text><text x="-299.16" y="-173.08000000000004" dominant-baseline="hanging" fill="black" font-size="10" font-family="sans" text-anchor="middle"><tspan x="-299.16" dy="10">Reset</tspan></text><circle cx="-378.0" cy="-26.871428571428574" r="4.32" style="stroke:black;fill:white;stroke-width:2.0;stroke-dasharray:-;" /><circle cx="-378.0" cy="-54.23142857142857" r="4.32" style="stroke:black;fill:white;stroke-width:2.0;stroke-dasharray:-;" /><text x="-378.90000000000003" y="-28.951428571428572" dominant-baseline="hanging" fill="black" font-size="10" font-family="sans" text-anchor="middle"><tspan x="-378.90000000000003" dy="10">K1 mirror NC</tspan></text><circle cx="-378.0" cy="-57.21428571428572" r="4.32" style="stroke:black;fill:white;stroke-width:2.0;stroke-dasharray:-;" /><circle cx="-378.0" cy="-84.57428571428571" r="4.32" style="stroke:black;fill:white;stroke-width:2.0;stroke-dasharray:-;" /><text x="-378.90000000000003" y="-59.294285714285714" dominant-baseline="hanging" fill="black" font-size="10" font-family="sans" text-anchor="middle"><tspan x="-378.90000000000003" dy="10">K2 mirror NC</tspan></text><text x="270.00000000000006" y="-453.88" dominant-baseline="ideographic" fill="black" font-size="10" font-family="sans" text-anchor="middle"><tspan x="270.00000000000006" dy="10">F1 6 A</tspan></text><text x="345.28370697246083" y="-93.01600000000002" dominant-baseline="ideographic" fill="black" font-size="10" font-family="sans" text-anchor="middle"><tspan x="345.28370697246083" dy="10">K1 24 VDC coil</tspan></text><text x="414.0" y="-479.368" dominant-baseline="ideographic" fill="black" font-size="10" font-family="sans" text-anchor="middle"><tspan x="414.0" dy="10">F2 6 A</tspan></text><text x="489.28370697246083" y="-237.44800000000004" dominant-baseline="ideographic" fill="black" font-size="10" font-family="sans" text-anchor="middle"><tspan x="489.28370697246083" dy="10">K2 24 VDC coil</tspan></text><text x="-428.40000000000003" y="-528.4" dominant-baseline="central" fill="black" font-size="10" font-family="sans" text-anchor="end"><tspan x="-428.40000000000003" dy="10">+24 V</tspan></text><text x="-428.40000000000003" y="40.4" dominant-baseline="central" fill="black" font-size="10" font-family="sans" text-anchor="end"><tspan x="-428.40000000000003" dy="10">0 V</tspan></text><text x="129.6" y="94.39999999999999" dominant-baseline="central" fill="black" font-size="10" font-family="sans" text-anchor="middle"><tspan x="129.6" dy="10">CNC Cat-4 safety chain — sheet 2/3 (control / safety)</tspan></text></svg>