<svg xmlns="http://www.w3.org/2000/svg" xmlns:xlink="http://www.w3.org/1999/xlink" xml:lang="en" height="922.1749999999998pt" width="1291.6399999999999pt" viewBox="-531.04 -808.1749999999998 1291.6399999999999 922.1749999999998"><circle cx="-450.0" cy="-331.68000000000006" r="4.32" style="stroke:black;fill:none;stroke-width:2.0;stroke-dasharray:-;" /><circle cx="-450.0" cy="-304.32000000000005" r="4.32" style="stroke:black;fill:none;stroke-width:2.0;stroke-dasharray:-;" /><circle cx="702.0" cy="-599.4" r="18.0" style="stroke:black;fill:none;stroke-width:2.0;stroke-dasharray:-;" /><path d="M 0.0,-0.0 L 180.0,-0.0 L 180.0,-576.0 L 0.0,-576.0 L 0.0,-0.0" style="stroke:black;fill:none;stroke-width:2.0;stroke-dasharray:-;stroke-linecap:round;stroke-linejoin:round;" /><path d="M 0.0,-18.0 L -18.0,-18.0" style="stroke:black;fill:none;stroke-width:2.0;stroke-dasharray:-;stroke-linecap:round;stroke-linejoin:round;" /><path d="M 0.0,-78.00000000000001 L -18.0,-78.00000000000001" style="stroke:black;fill:none;stroke-width:2.0;stroke-dasharray:-;stroke-linecap:round;stroke-linejoin:round;" /><path d="M 0.0,-138.0 L -18.0,-138.0" style="stroke:black;fill:none;stroke-width:2.0;stroke-dasharray:-;stroke-linecap:round;stroke-linejoin:round;" /><path d="M 0.0,-198.0 L -18.0,-198.0" style="stroke:black;fill:none;stroke-width:2.0;stroke-dasharray:-;stroke-linecap:round;stroke-linejoin:round;" /><path d="M 0.0,-258.0 L -18.0,-258.0" style="stroke:black;fill:none;stroke-width:2.0;stroke-dasharray:-;stroke-linecap:round;stroke-linejoin:round;" /><path d="M 0.0,-318.0 L -18.0,-318.0" style="stroke:black;fill:none;stroke-width:2.0;stroke-dasharray:-;stroke-linecap:round;stroke-linejoin:round;" /><path d="M 0.0,-378.0 L -18.0,-378.0" style="stroke:black;fill:none;stroke-width:2.0;stroke-dasharray:-;stroke-linecap:round;stroke-linejoin:round;" /><path d="M 0.0,-438.00000000000006 L -18.0,-438.00000000000006" style="stroke:black;fill:none;stroke-width:2.0;stroke-dasharray:-;stroke-linecap:round;stroke-linejoin:round;" /><path d="M 0.0,-498.0 L -18.0,-498.0" style="stroke:black;fill:none;stroke-width:2.0;stroke-dasharray:-;stroke-linecap:round;stroke-linejoin:round;" /><path d="M 0.0,-558.0 L -18.0,-558.0" style="stroke:black;fill:none;stroke-width:2.0;stroke-dasharray:-;stroke-linecap:round;stroke-linejoin:round;" /><path d="M 180.0,-18.0 L 198.0,-18.0" style="stroke:black;fill:none;stroke-width:2.0;stroke-dasharray:-;stroke-linecap:round;stroke-linejoin:round;" /><path d="M 180.0,-85.5 L 198.0,-85.5" style="stroke:black;fill:none;stroke-width:2.0;stroke-dasharray:-;stroke-linecap:round;stroke-linejoin:round;" /><path d="M 180.0,-153.0 L 198.0,-153.0" style="stroke:black;fill:none;stroke-width:2.0;stroke-dasharray:-;stroke-linecap:round;stroke-linejoin:round;" /><path d="M 180.0,-220.5 L 198.0,-220.5" style="stroke:black;fill:none;stroke-width:2.0;stroke-dasharray:-;stroke-linecap:round;stroke-linejoin:round;" /><path d="M 180.0,-288.0 L 198.0,-288.0" style="stroke:black;fill:none;stroke-width:2.0;stroke-dasharray:-;stroke-linecap:round;stroke-linejoin:round;" /><path d="M 180.0,-355.5 L 198.0,-355.5" style="stroke:black;fill:none;stroke-width:2.0;stroke-dasharray:-;stroke-linecap:round;stroke-linejoin:round;" /><path d="M 180.0,-423.0 L 198.0,-423.0" style="stroke:black;fill:none;stroke-width:2.0;stroke-dasharray:-;stroke-linecap:round;stroke-linejoin:round;" /><path d="M 180.0,-490.5 L 198.0,-490.5" style="stroke:black;fill:none;stroke-width:2.0;stroke-dasharray:-;stroke-linecap:round;stroke-linejoin:round;" /><path d="M 180.0,-558.0 L 198.0,-558.0" style="stroke:black;fill:none;stroke-width:2.0;stroke-dasharray:-;stroke-linecap:round;stroke-linejoin:round;" /><path d="M -18.0,-18.0 L -54.0,-18.000000000000004 L -90.0,-18.000000000000007" style="stroke:black;fill:none;stroke-width:2.0;stroke-dasharray:-;stroke-linecap:round;stroke-linejoin:round;" /><path d="M -90.0,-18.0 L -89.99999999999999,-324.0 L -89.99999999999997,-630.0" style="stroke:black;fill:none;stroke-width:2.0;stroke-dasharray:-;stroke-linecap:round;stroke-linejoin:round;" /><path d="M 198.0,-558.0 L 234.0,-558.0 L 270.0,-558.0" style="stroke:black;fill:none;stroke-width:2.0;stroke-dasharray:-;stroke-linecap:round;stroke-linejoin:round;" /><path d="M 270.0,-558.0 L 270.00000000000006,-252.0 L 270.00000000000006,54.0" style="stroke:black;fill:none;stroke-width:2.0;stroke-dasharray:-;stroke-linecap:round;stroke-linejoin:round;" /><path d="M -18.0,-558.0 L -90.0,-558.0 L -162.0,-558.0" style="stroke:black;fill:none;stroke-width:2.0;stroke-dasharray:-;stroke-linecap:round;stroke-linejoin:round;" /><path d="M -162.0,-558.0 L -161.99999999999997,-252.0 L -161.99999999999997,54.0" style="stroke:black;fill:none;stroke-width:2.0;stroke-dasharray:-;stroke-linecap:round;stroke-linejoin:round;" /><path d="M -18.0,-78.00000000000001 L -126.0,-78.00000000000003 L -234.0,-78.00000000000004" style="stroke:black;fill:none;stroke-width:2.0;stroke-dasharray:-;stroke-linecap:round;stroke-linejoin:round;" /><path d="M -234.0,-78.00000000000001 L -234.0,-82.50000000000001 L -234.0,-87.00000000000001" style="stroke:black;fill:none;stroke-width:2.0;stroke-dasharray:-;stroke-linecap:round;stroke-linejoin:round;" /><path d="M -234.0,-87.00000000000001 L -234.0,-90.0 M -234.0,-98.64000000000001 L -240.12,-122.4 M -234.0,-126.0 L -234.0,-129.0" style="stroke:black;fill:none;stroke-width:2.0;stroke-dasharray:-;stroke-linecap:round;stroke-linejoin:round;" /><path d="M -234.0,-129.0 L -234.0,-133.5 L -234.0,-138.0" style="stroke:black;fill:none;stroke-width:2.0;stroke-dasharray:-;stroke-linecap:round;stroke-linejoin:round;" /><path d="M -234.0,-138.0 L -126.0,-138.0 L -18.0,-138.0" style="stroke:black;fill:none;stroke-width:2.0;stroke-dasharray:-;stroke-linecap:round;stroke-linejoin:round;" /><path d="M -18.0,-198.0 L -162.0,-198.00000000000003 L -306.0,-198.00000000000003" style="stroke:black;fill:none;stroke-width:2.0;stroke-dasharray:-;stroke-linecap:round;stroke-linejoin:round;" /><path d="M -306.0,-198.0 L -306.0,-202.5 L -306.0,-207.0" style="stroke:black;fill:none;stroke-width:2.0;stroke-dasharray:-;stroke-linecap:round;stroke-linejoin:round;" /><path d="M -306.0,-207.0 L -306.0,-210.00000000000003 M -306.0,-218.64 L -312.12,-242.4 M -306.0,-246.00000000000003 L -306.0,-249.0" style="stroke:black;fill:none;stroke-width:2.0;stroke-dasharray:-;stroke-linecap:round;stroke-linejoin:round;" /><path d="M -306.0,-249.0 L -306.0,-253.5 L -306.0,-258.0" style="stroke:black;fill:none;stroke-width:2.0;stroke-dasharray:-;stroke-linecap:round;stroke-linejoin:round;" /><path d="M -306.0,-258.0 L -162.0,-258.0 L -18.0,-258.0" style="stroke:black;fill:none;stroke-width:2.0;stroke-dasharray:-;stroke-linecap:round;stroke-linejoin:round;" /><path d="M -18.0,-318.0 L -198.0,-318.0 L -378.0,-318.0000000000001" style="stroke:black;fill:none;stroke-width:2.0;stroke-dasharray:-;stroke-linecap:round;stroke-linejoin:round;" /><path d="M -378.0,-318.0 L -378.0,-348.00000000000006 L -378.0,-378.0" style="stroke:black;fill:none;stroke-width:2.0;stroke-dasharray:-;stroke-linecap:round;stroke-linejoin:round;" /><path d="M -378.0,-378.0 L -198.0,-378.0 L -18.0,-378.0" style="stroke:black;fill:none;stroke-width:2.0;stroke-dasharray:-;stroke-linecap:round;stroke-linejoin:round;" /><path d="M -18.0,-498.0 L -234.0,-498.0 L -450.0,-498.0000000000001" style="stroke:black;fill:none;stroke-width:2.0;stroke-dasharray:-;stroke-linecap:round;stroke-linejoin:round;" /><path d="M -450.0,-498.0 L -450.0,-492.6 L -450.0,-487.2" style="stroke:black;fill:none;stroke-width:2.0;stroke-dasharray:-;stroke-linecap:round;stroke-linejoin:round;" /><path d="M -450.0,-487.2 L -450.0,-480.0 M -450.0,-471.36 L -443.88,-447.6 M -450.0,-444.0 L -450.0,-436.80000000000007" style="stroke:black;fill:none;stroke-width:2.0;stroke-dasharray:-;stroke-linecap:round;stroke-linejoin:round;" /><path d="M -450.0,-436.80000000000007 L -450.0,-431.40000000000003 L -450.0,-426.0" style="stroke:black;fill:none;stroke-width:2.0;stroke-dasharray:-;stroke-linecap:round;stroke-linejoin:round;" /><path d="M -450.0,-426.0 L -450.0,-420.6 L -450.0,-415.20000000000005" style="stroke:black;fill:none;stroke-width:2.0;stroke-dasharray:-;stroke-linecap:round;stroke-linejoin:round;" /><path d="M -450.0,-415.20000000000005 L -450.0,-408.0000000000001 M -450.0,-399.36000000000007 L -443.88,-375.6000000000001 M -450.0,-372.0000000000001 L -450.0,-364.80000000000007" style="stroke:black;fill:none;stroke-width:2.0;stroke-dasharray:-;stroke-linecap:round;stroke-linejoin:round;" /><path d="M -450.0,-364.80000000000007 L -450.0,-359.40000000000003 L -450.0,-354.0" style="stroke:black;fill:none;stroke-width:2.0;stroke-dasharray:-;stroke-linecap:round;stroke-linejoin:round;" /><path d="M -450.0,-354.0 L -450.0,-348.6 L -450.0,-343.20000000000005" style="stroke:black;fill:none;stroke-width:2.0;stroke-dasharray:-;stroke-linecap:round;stroke-linejoin:round;" /><path d="M -450.0,-343.20000000000005 L -450.0,-336.0000000000001 M -439.2,-331.68000000000006 L -439.2,-304.32000000000005 M -439.2,-318.0000000000001 L -432.0,-318.0000000000001 M -450.0,-300.0000000000001 L -450.0,-292.80000000000007" style="stroke:black;fill:none;stroke-width:2.0;stroke-dasharray:-;stroke-linecap:round;stroke-linejoin:round;" /><path d="M -450.0,-292.80000000000007 L -450.0,-287.40000000000003 L -450.0,-282.0" style="stroke:black;fill:none;stroke-width:2.0;stroke-dasharray:-;stroke-linecap:round;stroke-linejoin:round;" /><path d="M -18.0,-438.00000000000006 L -250.20000000000002,-438.00000000000006 L -482.40000000000003,-438.0000000000001" style="stroke:black;fill:none;stroke-width:2.0;stroke-dasharray:-;stroke-linecap:round;stroke-linejoin:round;" /><path d="M -482.40000000000003,-438.00000000000006 L -482.40000000000003,-360.0 L -482.40000000000003,-282.0" style="stroke:black;fill:none;stroke-width:2.0;stroke-dasharray:-;stroke-linecap:round;stroke-linejoin:round;" /><path d="M -482.40000000000003,-282.0 L -466.2,-282.0 L -450.0,-282.0" style="stroke:black;fill:none;stroke-width:2.0;stroke-dasharray:-;stroke-linecap:round;stroke-linejoin:round;" /><path d="M 198.0,-18.0 L 270.0,-18.0 L 342.0,-18.0" style="stroke:black;fill:none;stroke-width:2.0;stroke-dasharray:-;stroke-linecap:round;stroke-linejoin:round;" /><path d="M 342.0,-18.0 L 342.0,-63.9 L 342.0,-109.8" style="stroke:black;fill:none;stroke-width:2.0;stroke-dasharray:-;stroke-linecap:round;stroke-linejoin:round;" /><path d="M 342.0,-109.8 L 342.0,-306.0 L 333.0,-306.0 L 333.0,-342.0 L 351.0,-342.0 L 351.0,-306.0 L 342.0,-306.0 M 342.0,-342.0 L 342.0,-538.1999999999999" style="stroke:black;fill:none;stroke-width:2.0;stroke-dasharray:-;stroke-linecap:round;stroke-linejoin:round;" /><path d="M 342.0,-306.0 L 342.0,-342.0" style="stroke:black;fill:none;stroke-width:2.0;stroke-dasharray:-;stroke-linecap:round;stroke-linejoin:round;" /><path d="M 342.0,-538.1999999999999 L 342.0,-584.1 L 342.0,-630.0" style="stroke:black;fill:none;stroke-width:2.0;stroke-dasharray:-;stroke-linecap:round;stroke-linejoin:round;" /><path d="M 198.0,-85.5 L 306.0,-85.5 L 414.0,-85.5" style="stroke:black;fill:none;stroke-width:2.0;stroke-dasharray:-;stroke-linecap:round;stroke-linejoin:round;" /><path d="M 414.0,-85.5 L 414.0,-75.03750000000001 L 414.0,-64.575" style="stroke:black;fill:none;stroke-width:2.0;stroke-dasharray:-;stroke-linecap:round;stroke-linejoin:round;" /><path d="M 414.0,-64.575 L 414.0,-33.75000000000001 L 415.4629117898821,-33.71683381018038 L 416.9641865610387,-33.61593035405704 L 418.472180158067,-33.4462594271158 L 419.9551068048736,-33.20824031868263 L 421.38170909131367,-32.903732974063466 L 422.7219168228317,-32.53599879026299 L 423.9474808457466,-32.109631871637724 L 425.0325684882902,-31.63046219448993 L 425.95430806658044,-31.105432721717285 L 426.69327097832775,-30.54245305771933 L 427.2338812226123,-29.9502327282503 L 427.56474371379704,-29.33809759937734 L 427.6788844693111,-28.71579330510033 L 427.5738976085824,-28.09327982702331 L 427.2519960646464,-27.48052155596625 L 426.71996493952173,-26.88727726063862 L 425.98901848653907,-26.32289439045486 L 425.0745637341742,-25.796112048216276 L 423.99587573376914,-25.31487678563869 L 422.7756912763309,-24.886175104422676 L 421.4397296421223,-24.515886193440792 L 420.01615048477726,-24.208658006075424 L 418.53496027676056,-23.967809289772575 L 417.02737982722994,-23.795259632851476 L 415.525186203877,-23.691489003056624 L 414.06004292984596,-23.655527630706242 L 412.66283257396526,-23.684976449682274 L 411.3630058020831,-23.776057665402675 L 410.1879606103266,-23.923694383894755 L 409.16246482492426,-24.12161762353272 L 408.30813404124973,-24.36249845382575 L 407.64297600618795,-24.638102476009983 L 407.1810110474187,-24.939463389273097 L 406.93197655028047,-25.257071984149654 L 406.90112171130914,-25.581076579448318 L 407.089096894674,-25.90149067786335 L 407.4919399236779,-26.208403463265796 L 408.1011595962719,-26.49218870277242 L 408.90391466422875,-26.743707650314853 L 409.8832845034171,-26.95450167486881 L 411.0186257699378,-27.116970553088994 L 412.2860075244564,-27.22453266826347 L 413.6587156530979,-27.271763738883624 L 415.107815952624,-27.254511152682312 L 416.60276401107666,-27.16998149618568 L 418.11204902870804,-27.01679943481417 L 419.6038580086154,-26.79503670244653 L 421.046746317146,-26.506210589399487 L 422.4103004798705,-26.153251960693638 L 423.6657792425868,-25.74044347872261 L 424.78671938494665,-25.273329332479932 L 425.74949351725223,-24.758598376088027 L 426.53380810307317,-24.203943139857792 L 427.12313121027074,-23.617897685670354 L 427.50504097421043,-23.00965772439626 L 427.67148742818927,-22.388886786951282 L 427.6189621821662,-21.76551253455225 L 427.3485723732754,-21.149517501584167 L 426.8660173293789,-20.550728681840194 L 426.18146843754914,-19.978610393275837 L 425.3093547496358,-19.442064787313527 L 424.2680588439646,-18.949244207600348 L 423.0795293538518,-18.50737935335677 L 421.76881833013346,-18.12262686932214 L 420.3635531892687,-17.79993957482484 L 418.89335437739703,-17.54296206731375 L 417.3892110249359,-17.353953900839397 L 415.8828277517905,-17.233741958743607 L 414.40595639134114,-17.181703024454976 L 412.98972671925395,-17.195776917766445 L 411.6639902941447,-17.272509919705833 L 410.4566912407435,-17.40712757068177 L 409.393277238314,-17.593635307451848 L 408.49616312962644,-17.824944817667685 L 407.7842584566344,-18.093023448671982 L 407.2725688815505,-18.38906352128018 L 406.97187989464123,-18.703667979719043 L 406.88852947561065,-19.02704846455691 L 407.0242745004572,-19.34923163360714 L 407.3762537097074,-19.660269381933173 L 407.9370480185874,-19.950448529898072 L 408.6948368979042,-20.21049555941385 L 409.6336475294102,-20.431772082921047 L 410.73369148390657,-20.60645692496599 L 411.9717818255207,-20.727710978425893 L 413.3218218503545,-20.78982136051062 L 414.75535515777676,-20.7883218299936 L 416.2421654598523,-20.720086927494606 L 417.7509134860113,-20.58339785450749 L 419.24979755815946,-20.377978702562313 L 420.7072239125029,-20.105002268876575 L 422.0924726389154,-19.7670653359122 L 423.37634520105166,-19.368133935900524 L 424.53177988865446,-18.913459754059943 L 425.5344222294349,-18.409469432575207 L 426.36313833727536,-17.863629108610084 L 427.000460376304,-17.28428704164702 L 427.43295475126416,-16.680497647284614 L 427.6515052633928,-16.061830646542084 L 427.6515052633928,-15.438169353457955 L 427.4329547512642,-14.819502352715425 L 427.00046037630403,-14.215712958353027 L 426.3631383372755,-13.636370891389964 L 425.534422229435,-13.090530567424835 L 424.5317798886545,-12.586540245940103 L 423.3763452010517,-12.131866064099524 L 422.09247263891547,-11.73293466408784 L 420.70722391250297,-11.394997731123457 L 419.2497975581595,-11.12202129743771 L 417.75091348601137,-10.916602145492533 L 416.24216545985234,-10.779913072505419 L 414.7553551577768,-10.711678170006426 L 413.3218218503546,-10.710178639489396 L 411.9717818255208,-10.772289021574116 L 410.7336914839066,-10.893543075034017 L 409.63364752941027,-11.06822791707896 L 408.69483689790434,-11.28950444058615 L 407.9370480185874,-11.549551470101935 L 407.3762537097074,-11.839730618066836 L 407.0242745004572,-12.15076836639286 L 406.88852947561065,-12.472951535443084 L 406.97187989464123,-12.796332020280964 L 407.2725688815505,-13.110936478719822 L 407.7842584566344,-13.406976551328025 L 408.4961631296264,-13.675055182332299 L 409.39327723831394,-13.906364692548166 L 410.45669124074345,-14.092872429318238 L 411.66399029414464,-14.227490080294185 L 412.9897267192539,-14.304223082233573 L 414.40595639134096,-14.318296975545039 L 415.88282775179044,-14.266258041256417 L 417.3892110249358,-14.146046099160628 L 418.89335437739703,-13.957037932686276 L 420.36355318926866,-13.700060425175183 L 421.7688183301333,-13.377373130677901 L 423.07952935385174,-12.992620646643267 L 424.2680588439645,-12.550755792399684 L 425.30935474963576,-12.057935212686504 L 426.18146843754914,-11.521389606724211 L 426.8660173293789,-10.94927131815987 L 427.3485723732754,-10.350482498415865 L 427.6189621821662,-9.734487465447796 L 427.67148742818927,-9.111113213048775 L 427.50504097421043,-8.490342275603773 L 427.12313121027074,-7.882102314329686 L 426.53380810307317,-7.296056860142254 L 425.7494935172523,-6.7414016239120205 L 424.7867193849467,-6.2266706675201 L 423.6657792425868,-5.759556521277428 L 422.4103004798706,-5.346748039306396 L 421.0467463171461,-4.993789410600552 L 419.6038580086155,-4.704963297553494 L 418.11204902870816,-4.483200565185852 L 416.60276401107683,-4.330018503814342 L 415.10781595262404,-4.245488847317706 L 413.65871565309794,-4.2282362611163915 L 412.28600752445647,-4.275467331736538 L 411.01862576993784,-4.3830294469110145 L 409.8832845034171,-4.545498325131199 L 408.90391466422886,-4.756292349685147 L 408.10115959627194,-5.007811297227579 L 407.4919399236779,-5.291596536734204 L 407.089096894674,-5.598509322136657 L 406.90112171130914,-5.918923420551681 L 406.93197655028047,-6.242928015850339 L 407.1810110474187,-6.560536610726896 L 407.64297600618795,-6.861897523990017 L 408.3081340412497,-7.137501546174249 L 409.1624648249242,-7.378382376467279 L 410.1879606103266,-7.576305616105254 L 411.363005802083,-7.723942334597325 L 412.6628325739652,-7.8150235503177345 L 414.06004292984585,-7.844472369293765 L 415.52518620387696,-7.808510996943392 L 417.0273798272299,-7.704740367148547 L 418.5349602767605,-7.532190710227457 L 420.0161504847772,-7.291341993924615 L 421.4397296421223,-6.984113806559231 L 422.77569127633086,-6.613824895577363 L 423.9958757337691,-6.1851232143613615 L 425.0745637341742,-5.703887951783749 L 425.98901848653907,-5.17710560954518 L 426.71996493952173,-4.612722739361429 L 427.2519960646464,-4.019478444033806 L 427.5738976085824,-3.406720172976729 L 427.6788844693111,-2.784206694899713 L 427.56474371379704,-2.161902400622715 L 427.23388122261235,-1.5497672717497633 L 426.69327097832775,-0.9575469422807004 L 425.9543080665805,-0.3945672782827554 L 425.0325684882903,0.13046219448988516 L 423.94748084574667,0.6096318716377098 L 422.72191682283176,1.035998790262962 L 421.3817090913137,1.403732974063435 L 419.9551068048737,1.7082403186825923 L 418.472180158067,1.9462594271157805 L 416.96418656103873,2.1159303540570287 L 415.46291178988224,2.2168338101803657 L 414.0000000000001,2.249999999999992 L 414.0000000000001,33.07499999999999" style="stroke:black;fill:none;stroke-width:2.0;stroke-dasharray:-;stroke-linecap:round;stroke-linejoin:round;" /><path d="M 414.0,33.07499999999999 L 414.0,43.537499999999994 L 414.0,54.0" style="stroke:black;fill:none;stroke-width:2.0;stroke-dasharray:-;stroke-linecap:round;stroke-linejoin:round;" /><path d="M 198.0,-153.0 L 342.0,-153.0 L 486.0,-153.0" style="stroke:black;fill:none;stroke-width:2.0;stroke-dasharray:-;stroke-linecap:round;stroke-linejoin:round;" /><path d="M 486.0,-153.0 L 486.0,-188.775 L 486.0,-224.54999999999998" style="stroke:black;fill:none;stroke-width:2.0;stroke-dasharray:-;stroke-linecap:round;stroke-linejoin:round;" /><path d="M 486.0,-224.54999999999998 L 486.0,-373.5 L 477.0,-373.5 L 477.0,-409.5 L 495.0,-409.5 L 495.0,-373.5 L 486.0,-373.5 M 486.0,-409.5 L 486.0,-558.4499999999999" style="stroke:black;fill:none;stroke-width:2.0;stroke-dasharray:-;stroke-linecap:round;stroke-linejoin:round;" /><path d="M 486.0,-373.5 L 486.0,-409.5" style="stroke:black;fill:none;stroke-width:2.0;stroke-dasharray:-;stroke-linecap:round;stroke-linejoin:round;" /><path d="M 486.0,-558.4499999999999 L 486.0,-594.225 L 486.0,-630.0" style="stroke:black;fill:none;stroke-width:2.0;stroke-dasharray:-;stroke-linecap:round;stroke-linejoin:round;" /><path d="M 198.0,-220.5 L 378.0,-220.5 L 558.0,-220.5" style="stroke:black;fill:none;stroke-width:2.0;stroke-dasharray:-;stroke-linecap:round;stroke-linejoin:round;" /><path d="M 558.0,-220.5 L 558.0,-199.9125 L 558.0,-179.32500000000002" style="stroke:black;fill:none;stroke-width:2.0;stroke-dasharray:-;stroke-linecap:round;stroke-linejoin:round;" /><path d="M 558.0,-179.32500000000002 L 558.0,-101.25 L 559.4629117898821,-101.21683381018038 L 560.9641865610387,-101.11593035405704 L 562.472180158067,-100.94625942711579 L 563.9551068048736,-100.70824031868261 L 565.3817090913136,-100.40373297406346 L 566.7219168228316,-100.03599879026298 L 567.9474808457466,-99.60963187163773 L 569.0325684882903,-99.13046219448992 L 569.9543080665806,-98.60543272171728 L 570.6932709783277,-98.04245305771933 L 571.2338812226122,-97.45023272825028 L 571.564743713797,-96.83809759937733 L 571.6788844693111,-96.21579330510033 L 571.5738976085825,-95.5932798270233 L 571.2519960646464,-94.98052155596623 L 570.7199649395218,-94.38727726063863 L 569.9890184865391,-93.82289439045485 L 569.0745637341743,-93.29611204821627 L 567.9958757337693,-92.81487678563869 L 566.7756912763309,-92.38617510442268 L 565.4397296421223,-92.01588619344079 L 564.0161504847772,-91.70865800607541 L 562.5349602767606,-91.46780928977256 L 561.0273798272299,-91.29525963285147 L 559.5251862038771,-91.19148900305663 L 558.060042929846,-91.15552763070623 L 556.6628325739653,-91.18497644968227 L 555.3630058020831,-91.27605766540267 L 554.1879606103266,-91.42369438389474 L 553.1624648249243,-91.6216176235327 L 552.3081340412497,-91.86249845382575 L 551.642976006188,-92.13810247600996 L 551.1810110474187,-92.43946338927309 L 550.9319765502804,-92.75707198414965 L 550.9011217113092,-93.08107657944831 L 551.0890968946741,-93.40149067786334 L 551.4919399236778,-93.70840346326578 L 552.1011595962719,-93.99218870277241 L 552.9039146642288,-94.24370765031483 L 553.883284503417,-94.4545016748688 L 555.0186257699378,-94.61697055308898 L 556.2860075244564,-94.72453266826346 L 557.6587156530979,-94.77176373888362 L 559.1078159526239,-94.7545111526823 L 560.6027640110767,-94.66998149618567 L 562.112049028708,-94.51679943481416 L 563.6038580086155,-94.29503670244652 L 565.046746317146,-94.00621058939947 L 566.4103004798704,-93.65325196069362 L 567.6657792425868,-93.2404434787226 L 568.7867193849467,-92.77332933247992 L 569.7494935172523,-92.25859837608803 L 570.5338081030732,-91.70394313985778 L 571.1231312102707,-91.11789768567036 L 571.5050409742104,-90.50965772439625 L 571.6714874281893,-89.88888678695128 L 571.6189621821661,-89.26551253455224 L 571.3485723732754,-88.64951750158416 L 570.8660173293789,-88.05072868184018 L 570.1814684375491,-87.47861039327583 L 569.3093547496359,-86.94206478731353 L 568.2680588439646,-86.44924420760034 L 567.0795293538517,-86.00737935335677 L 565.7688183301334,-85.62262686932213 L 564.3635531892687,-85.29993957482483 L 562.893354377397,-85.04296206731374 L 561.3892110249359,-84.85395390083939 L 559.8828277517905,-84.7337419587436 L 558.4059563913411,-84.68170302445496 L 556.9897267192539,-84.69577691776642 L 555.6639902941447,-84.77250991970581 L 554.4566912407435,-84.90712757068177 L 553.393277238314,-85.09363530745183 L 552.4961631296264,-85.32494481766769 L 551.7842584566345,-85.59302344867197 L 551.2725688815505,-85.88906352128018 L 550.9718798946412,-86.20366797971903 L 550.8885294756107,-86.5270484645569 L 551.0242745004572,-86.84923163360713 L 551.3762537097074,-87.16026938193316 L 551.9370480185875,-87.45044852989807 L 552.6948368979042,-87.71049555941386 L 553.6336475294102,-87.93177208292104 L 554.7336914839066,-88.10645692496598 L 555.9717818255207,-88.22771097842589 L 557.3218218503545,-88.28982136051062 L 558.7553551577768,-88.28832182999359 L 560.2421654598523,-88.22008692749459 L 561.7509134860113,-88.08339785450747 L 563.2497975581595,-87.8779787025623 L 564.7072239125029,-87.60500226887658 L 566.0924726389154,-87.26706533591218 L 567.3763452010517,-86.8681339359005 L 568.5317798886545,-86.41345975405993 L 569.5344222294349,-85.90946943257521 L 570.3631383372755,-85.36362910861007 L 571.0004603763041,-84.784287041647 L 571.4329547512642,-84.18049764728461 L 571.6515052633928,-83.56183064654209 L 571.6515052633928,-82.93816935345795 L 571.4329547512642,-82.31950235271542 L 571.0004603763041,-81.71571295835302 L 570.3631383372755,-81.13637089138994 L 569.534422229435,-80.59053056742482 L 568.5317798886546,-80.08654024594009 L 567.3763452010517,-79.63186606409951 L 566.0924726389154,-79.23293466408784 L 564.707223912503,-78.89499773112345 L 563.2497975581596,-78.62202129743771 L 561.7509134860113,-78.41660214549253 L 560.2421654598523,-78.27991307250541 L 558.7553551577769,-78.21167817000641 L 557.3218218503546,-78.21017863948938 L 555.9717818255208,-78.2722890215741 L 554.7336914839066,-78.39354307503402 L 553.6336475294103,-78.56822791707896 L 552.6948368979043,-78.78950444058613 L 551.9370480185875,-79.04955147010193 L 551.3762537097074,-79.33973061806682 L 551.0242745004572,-79.65076836639284 L 550.8885294756107,-79.97295153544307 L 550.9718798946412,-80.29633202028096 L 551.2725688815505,-80.61093647871981 L 551.7842584566345,-80.90697655132801 L 552.4961631296263,-81.1750551823323 L 553.393277238314,-81.40636469254815 L 554.4566912407435,-81.59287242931823 L 555.6639902941447,-81.72749008029417 L 556.9897267192539,-81.80422308223358 L 558.4059563913411,-81.81829697554504 L 559.8828277517905,-81.7662580412564 L 561.3892110249358,-81.64604609916063 L 562.893354377397,-81.45703793268628 L 564.3635531892687,-81.20006042517518 L 565.7688183301333,-80.87737313067788 L 567.0795293538517,-80.49262064664326 L 568.2680588439645,-80.05075579239968 L 569.3093547496358,-79.5579352126865 L 570.1814684375491,-79.0213896067242 L 570.8660173293789,-78.44927131815986 L 571.3485723732754,-77.85048249841586 L 571.6189621821661,-77.2344874654478 L 571.6714874281893,-76.61111321304877 L 571.5050409742104,-75.99034227560377 L 571.1231312102707,-75.38210231432967 L 570.5338081030732,-74.79605686014226 L 569.7494935172523,-74.24140162391203 L 568.7867193849468,-73.7266706675201 L 567.6657792425868,-73.25955652127742 L 566.4103004798707,-72.84674803930639 L 565.0467463171461,-72.49378941060056 L 563.6038580086155,-72.20496329755349 L 562.1120490287082,-71.98320056518585 L 560.6027640110768,-71.83001850381433 L 559.107815952624,-71.7454888473177 L 557.6587156530979,-71.72823626111638 L 556.2860075244564,-71.77546733173654 L 555.0186257699378,-71.88302944691101 L 553.883284503417,-72.0454983251312 L 552.9039146642289,-72.25629234968514 L 552.1011595962719,-72.50781129722758 L 551.4919399236778,-72.7915965367342 L 551.0890968946741,-73.09850932213664 L 550.9011217113092,-73.41892342055168 L 550.9319765502804,-73.74292801585034 L 551.1810110474187,-74.0605366107269 L 551.642976006188,-74.36189752399002 L 552.3081340412497,-74.63750154617425 L 553.1624648249242,-74.87838237646727 L 554.1879606103266,-75.07630561610524 L 555.3630058020831,-75.22394233459733 L 556.6628325739651,-75.31502355031772 L 558.0600429298458,-75.34447236929377 L 559.525186203877,-75.30851099694337 L 561.0273798272299,-75.20474036714853 L 562.5349602767606,-75.03219071022744 L 564.0161504847772,-74.7913419939246 L 565.4397296421223,-74.48411380655924 L 566.7756912763308,-74.11382489557735 L 567.9958757337691,-73.68512321436134 L 569.0745637341743,-73.20388795178374 L 569.9890184865391,-72.67710560954518 L 570.7199649395217,-72.11272273936142 L 571.2519960646464,-71.5194784440338 L 571.5738976085825,-70.90672017297672 L 571.6788844693111,-70.28420669489971 L 571.564743713797,-69.66190240062272 L 571.2338812226124,-69.04976727174974 L 570.6932709783277,-68.4575469422807 L 569.9543080665806,-67.89456727828274 L 569.0325684882903,-67.36953780551012 L 567.9474808457467,-66.8903681283623 L 566.7219168228318,-66.46400120973703 L 565.3817090913137,-66.09626702593656 L 563.9551068048737,-65.7917596813174 L 562.472180158067,-65.55374057288422 L 560.9641865610388,-65.38406964594296 L 559.4629117898822,-65.28316618981962 L 558.0000000000001,-65.25 L 558.0000000000001,12.825000000000006" style="stroke:black;fill:none;stroke-width:2.0;stroke-dasharray:-;stroke-linecap:round;stroke-linejoin:round;" /><path d="M 558.0,12.825000000000006 L 558.0,33.4125 L 558.0,54.0" style="stroke:black;fill:none;stroke-width:2.0;stroke-dasharray:-;stroke-linecap:round;stroke-linejoin:round;" /><path d="M 198.0,-423.0 L 414.0,-423.0 L 630.0,-423.0" style="stroke:black;fill:none;stroke-width:2.0;stroke-dasharray:-;stroke-linecap:round;stroke-linejoin:round;" /><path d="M 630.0,-423.0 L 630.0,-526.5 L 630.0,-630.0" style="stroke:black;fill:none;stroke-width:2.0;stroke-dasharray:-;stroke-linecap:round;stroke-linejoin:round;" /><path d="M 198.0,-490.5 L 450.0,-490.5 L 702.0,-490.5" style="stroke:black;fill:none;stroke-width:2.0;stroke-dasharray:-;stroke-linecap:round;stroke-linejoin:round;" /><path d="M 702.0,-490.5 L 702.0,-449.66249999999997 L 702.0,-408.825" style="stroke:black;fill:none;stroke-width:2.0;stroke-dasharray:-;stroke-linecap:round;stroke-linejoin:round;" /><path d="M 702.0,-408.825 L 702.0,-581.4 L 702.0,-581.4 M 702.0,-617.4 L 702.0,-617.4 L 702.0,-789.9749999999999" style="stroke:black;fill:none;stroke-width:2.0;stroke-dasharray:-;stroke-linecap:round;stroke-linejoin:round;" /><path d="M 702.0,-581.4 L 701.3742335117938,-581.5557973309052 L 700.7440117251955,-581.7772496560303 L 700.1156439859101,-582.0644929520624 L 699.4954210782004,-582.4170045418804 L 698.8895522458947,-582.8336083272375 L 698.3041030297228,-583.312486563046 L 697.7449345433052,-583.8511980553865 L 697.2176447957291,-584.4467026010572 L 696.7275126481434,-585.0953914239905 L 696.2794449654422,-585.7931233038299 L 695.8779274921201,-586.5352660349703 L 695.5269799440925,-587.3167428010045 L 695.2301157660739,-588.1320830003065 L 694.9903069573925,-588.9754770139209 L 694.8099543183848,-589.8408343674588 L 694.6908634152378,-590.7218447047256 L 694.634226503907,-591.6120409626537 L 694.6406105940721,-592.5048641150756 L 694.7099517726268,-593.3937288371682 L 694.8415558435337,-594.272089433182 L 695.0341052776349,-595.1335053674306 L 695.2856724028463,-595.97170574249 L 695.5937387026789,-596.7806520790975 L 695.9552200298897,-597.554598769239 L 696.366497482835,-598.2881505972131 L 696.8234536354172,-598.9763167528081 L 697.3215137579141,-599.6145607958498 L 697.8556916160163,-600.1988460719115 L 698.420639389565,-600.7256761245127 L 699.0107012112379,-601.1921296992282 L 699.61996978919,-601.5958899892732 L 700.2423455467843,-601.9352678297737 L 700.8715976873449,-602.2092186085193 L 701.5014265725935,-602.4173527239011 L 702.1255267902819,-602.5599394853331 L 702.7376502796295,-602.6379044171126 L 703.331668882596,-602.6528199927095 L 703.9016356947723,-602.606889892247 L 704.4418446016842,-602.5029269407761 L 704.9468874044733,-602.3443249482129 L 705.411707963053,-602.135024732854 L 705.831652814694,-601.8794746686237 L 706.2025177612832,-601.582586151023 L 706.5205899588541,-601.2496844276263 L 706.7826850880188,-600.8864552853777 L 706.9861792331767,-600.4988881284135 L 707.1290351513478,-600.0932160162822 L 707.2098226676428,-599.6758532628512 L 707.2277329931879,-599.2533312206232 L 707.1825868221613,-598.8322328933402 L 707.0748361268784,-598.4191270314927 L 706.9055596329578,-598.0205023705219 L 706.676452019864,-597.6427026700765 L 706.3898069549463,-597.2918632046689 L 706.0484941308237,-596.97384934154 L 705.6559305360021,-596.6941978206482 L 705.2160462463431,-596.4580613246499 L 704.7332450798564,-596.2701568937952 L 704.2123605087114,-596.1347187021759 L 703.6586072698497,-596.0554556680959 L 703.077529158636,-596.0355143229393 L 702.4749435282047,-596.0774473102706 L 701.8568830501326,-596.1831878305272 L 701.2295353194951,-596.3540302871509 L 700.5991809089319,-596.5906173279138 L 699.9721304918878,-596.8929334111725 L 699.3546616645043,-597.2603049614594 L 698.7529560986579,-597.6914071128564 L 698.1730376553264,-598.184276972638 L 697.6207120778492,-598.7363332723992 L 697.1015088688303,-599.3444022099334 L 696.6206259325735,-600.0047492231508 L 696.1828775372511,-600.7131163779372 L 695.792646117772,-601.4647649956524 L 695.4538384018675,-602.2545230935116 L 695.1698462986285,-603.0768371629081 L 694.943512941052,-603.9258277673109 L 694.777104222555,-604.7953484031256 L 694.6722861124132,-605.6790470342477 L 694.6301079772262,-606.5704296842662 L 694.6509920753824,-607.4629254496747 L 694.7347293297003,-608.349952283223 L 694.8804814205641,-609.224982888834 L 695.0867891786019,-610.0816100683871 L 695.3515871928826,-610.9136108661667 L 695.6722244883847,-611.7150088687999 L 696.0454910657298,-612.4801340369851 L 696.4676500374812,-613.2036794700119 L 696.9344750392828,-613.8807545347908 L 697.4412925413027,-614.5069338274968 L 697.9830286363901,-615.0783014776595 L 698.5542598365327,-615.5914903511559 L 699.1492673690757,-616.0437157596347 L 699.7620944291295,-616.4328033388948 L 700.3866058149897,-616.7572108171187 L 701.0165493495432,-617.0160434550346 L 701.6456184727523,-617.2090630034287 L 702.2675153785825,-617.3366900883314 L 702.8760140642906,-617.4" style="stroke:black;fill:none;stroke-width:2.0;stroke-dasharray:-;stroke-linecap:round;stroke-linejoin:round;" /><path d="M 702.0,-27.675000000000026 L 702.0,13.162499999999987 L 702.0,54.0" style="stroke:black;fill:none;stroke-width:2.0;stroke-dasharray:-;stroke-linecap:round;stroke-linejoin:round;" /><path d="M -504.0,-630.0 L 126.0,-630.0 L 756.0,-630.0" style="stroke:black;fill:none;stroke-width:2.0;stroke-dasharray:-;stroke-linecap:round;stroke-linejoin:round;" /><path d="M -504.0,54.0 L 126.0,54.0 L 756.0,54.0" style="stroke:black;fill:none;stroke-width:2.0;stroke-dasharray:-;stroke-linecap:round;stroke-linejoin:round;" /><text x="-2.6999999999999997" y="-31.7" dominant-baseline="ideographic" fill="black" font-size="11" font-family="sans" text-anchor="end"><tspan x="-2.6999999999999997" dy="11">1</tspan></text><text x="5.3999999999999995" y="-32.0" dominant-baseline="central" fill="black" font-size="14" font-family="sans" text-anchor="start"><tspan x="5.3999999999999995" dy="14">A1</tspan></text><text x="-2.6999999999999997" y="-91.70000000000002" dominant-baseline="ideographic" fill="black" font-size="11" font-family="sans" text-anchor="end"><tspan x="-2.6999999999999997" dy="11">2</tspan></text><text x="5.3999999999999995" y="-92.00000000000001" dominant-baseline="central" fill="black" font-size="14" font-family="sans" text-anchor="start"><tspan x="5.3999999999999995" dy="14">S11</tspan></text><text x="-2.6999999999999997" y="-151.70000000000002" dominant-baseline="ideographic" fill="black" font-size="11" font-family="sans" text-anchor="end"><tspan x="-2.6999999999999997" dy="11">3</tspan></text><text x="5.3999999999999995" y="-152.0" dominant-baseline="central" fill="black" font-size="14" font-family="sans" text-anchor="start"><tspan x="5.3999999999999995" dy="14">S12</tspan></text><text x="-2.6999999999999997" y="-211.70000000000002" dominant-baseline="ideographic" fill="black" font-size="11" font-family="sans" text-anchor="end"><tspan x="-2.6999999999999997" dy="11">4</tspan></text><text x="5.3999999999999995" y="-212.0" dominant-baseline="central" fill="black" font-size="14" font-family="sans" text-anchor="start"><tspan x="5.3999999999999995" dy="14">S21</tspan></text><text x="-2.6999999999999997" y="-271.70000000000005" dominant-baseline="ideographic" fill="black" font-size="11" font-family="sans" text-anchor="end"><tspan x="-2.6999999999999997" dy="11">5</tspan></text><text x="5.3999999999999995" y="-272.0" dominant-baseline="central" fill="black" font-size="14" font-family="sans" text-anchor="start"><tspan x="5.3999999999999995" dy="14">S22</tspan></text><text x="-2.6999999999999997" y="-331.7" dominant-baseline="ideographic" fill="black" font-size="11" font-family="sans" text-anchor="end"><tspan x="-2.6999999999999997" dy="11">6</tspan></text><text x="5.3999999999999995" y="-332.0" dominant-baseline="central" fill="black" font-size="14" font-family="sans" text-anchor="start"><tspan x="5.3999999999999995" dy="14">Y36</tspan></text><text x="-2.6999999999999997" y="-391.7" dominant-baseline="ideographic" fill="black" font-size="11" font-family="sans" text-anchor="end"><tspan x="-2.6999999999999997" dy="11">7</tspan></text><text x="5.3999999999999995" y="-392.0" dominant-baseline="central" fill="black" font-size="14" font-family="sans" text-anchor="start"><tspan x="5.3999999999999995" dy="14">S52</tspan></text><text x="-2.6999999999999997" y="-451.70000000000005" dominant-baseline="ideographic" fill="black" font-size="11" font-family="sans" text-anchor="end"><tspan x="-2.6999999999999997" dy="11">8</tspan></text><text x="5.3999999999999995" y="-452.00000000000006" dominant-baseline="central" fill="black" font-size="14" font-family="sans" text-anchor="start"><tspan x="5.3999999999999995" dy="14">Y1</tspan></text><text x="-2.6999999999999997" y="-511.7" dominant-baseline="ideographic" fill="black" font-size="11" font-family="sans" text-anchor="end"><tspan x="-2.6999999999999997" dy="11">9</tspan></text><text x="5.3999999999999995" y="-512.0" dominant-baseline="central" fill="black" font-size="14" font-family="sans" text-anchor="start"><tspan x="5.3999999999999995" dy="14">Y2</tspan></text><text x="-2.6999999999999997" y="-571.6999999999999" dominant-baseline="ideographic" fill="black" font-size="11" font-family="sans" text-anchor="end"><tspan x="-2.6999999999999997" dy="11">10</tspan></text><text x="5.3999999999999995" y="-572.0" dominant-baseline="central" fill="black" font-size="14" font-family="sans" text-anchor="start"><tspan x="5.3999999999999995" dy="14">A3</tspan></text><text x="182.70000000000002" y="-31.7" dominant-baseline="ideographic" fill="black" font-size="11" font-family="sans" text-anchor="start"><tspan x="182.70000000000002" dy="11">1</tspan></text><text x="174.6" y="-32.0" dominant-baseline="central" fill="black" font-size="14" font-family="sans" text-anchor="end"><tspan x="174.6" dy="14">13</tspan></text><text x="182.70000000000002" y="-99.2" dominant-baseline="ideographic" fill="black" font-size="11" font-family="sans" text-anchor="start"><tspan x="182.70000000000002" dy="11">2</tspan></text><text x="174.6" y="-99.5" dominant-baseline="central" fill="black" font-size="14" font-family="sans" text-anchor="end"><tspan x="174.6" dy="14">14</tspan></text><text x="182.70000000000002" y="-166.70000000000002" dominant-baseline="ideographic" fill="black" font-size="11" font-family="sans" text-anchor="start"><tspan x="182.70000000000002" dy="11">3</tspan></text><text x="174.6" y="-167.0" dominant-baseline="central" fill="black" font-size="14" font-family="sans" text-anchor="end"><tspan x="174.6" dy="14">23</tspan></text><text x="182.70000000000002" y="-234.20000000000002" dominant-baseline="ideographic" fill="black" font-size="11" font-family="sans" text-anchor="start"><tspan x="182.70000000000002" dy="11">4</tspan></text><text x="174.6" y="-234.5" dominant-baseline="central" fill="black" font-size="14" font-family="sans" text-anchor="end"><tspan x="174.6" dy="14">24</tspan></text><text x="182.70000000000002" y="-301.7" dominant-baseline="ideographic" fill="black" font-size="11" font-family="sans" text-anchor="start"><tspan x="182.70000000000002" dy="11">5</tspan></text><text x="174.6" y="-302.0" dominant-baseline="central" fill="black" font-size="14" font-family="sans" text-anchor="end"><tspan x="174.6" dy="14">33</tspan></text><text x="182.70000000000002" y="-369.2" dominant-baseline="ideographic" fill="black" font-size="11" font-family="sans" text-anchor="start"><tspan x="182.70000000000002" dy="11">6</tspan></text><text x="174.6" y="-369.5" dominant-baseline="central" fill="black" font-size="14" font-family="sans" text-anchor="end"><tspan x="174.6" dy="14">34</tspan></text><text x="182.70000000000002" y="-436.7" dominant-baseline="ideographic" fill="black" font-size="11" font-family="sans" text-anchor="start"><tspan x="182.70000000000002" dy="11">7</tspan></text><text x="174.6" y="-437.0" dominant-baseline="central" fill="black" font-size="14" font-family="sans" text-anchor="end"><tspan x="174.6" dy="14">41</tspan></text><text x="182.70000000000002" y="-504.2" dominant-baseline="ideographic" fill="black" font-size="11" font-family="sans" text-anchor="start"><tspan x="182.70000000000002" dy="11">8</tspan></text><text x="174.6" y="-504.5" dominant-baseline="central" fill="black" font-size="14" font-family="sans" text-anchor="end"><tspan x="174.6" dy="14">42</tspan></text><text x="182.70000000000002" y="-571.6999999999999" dominant-baseline="ideographic" fill="black" font-size="11" font-family="sans" text-anchor="start"><tspan x="182.70000000000002" dy="11">9</tspan></text><text x="174.6" y="-572.0" dominant-baseline="central" fill="black" font-size="14" font-family="sans" text-anchor="end"><tspan x="174.6" dy="14">A2</tspan></text><text x="93.60000000000001" y="-311.59999999999997" dominant-baseline="central" fill="black" font-size="10" font-family="sans" text-anchor="middle"><tspan x="93.60000000000001" dy="10">PNOZ 8</tspan><tspan x="93.60000000000001" dy="10">Pilz 774760</tspan><tspan x="93.60000000000001" dy="10">24 VDC</tspan></text><circle cx="-234.0" cy="-94.32000000000001" r="4.32" style="stroke:black;fill:white;stroke-width:2.0;stroke-dasharray:-;" /><circle cx="-234.0" cy="-121.68" r="4.32" style="stroke:black;fill:white;stroke-width:2.0;stroke-dasharray:-;" /><text x="-234.9" y="-93.4" dominant-baseline="hanging" fill="black" font-size="10" font-family="sans" text-anchor="middle"><tspan x="-234.9" dy="10">E-stop ch1</tspan></text><circle cx="-306.0" cy="-214.32" r="4.32" style="stroke:black;fill:white;stroke-width:2.0;stroke-dasharray:-;" /><circle cx="-306.0" cy="-241.68" r="4.32" style="stroke:black;fill:white;stroke-width:2.0;stroke-dasharray:-;" /><text x="-306.90000000000003" y="-213.4" dominant-baseline="hanging" fill="black" font-size="10" font-family="sans" text-anchor="middle"><tspan x="-306.90000000000003" dy="10">E-stop ch2</tspan></text><circle cx="-450.0" cy="-475.68000000000006" r="4.32" style="stroke:black;fill:white;stroke-width:2.0;stroke-dasharray:-;" /><circle cx="-450.0" cy="-448.32" r="4.32" style="stroke:black;fill:white;stroke-width:2.0;stroke-dasharray:-;" /><text x="-449.09999999999997" y="-443.20000000000005" dominant-baseline="hanging" fill="black" font-size="10" font-family="sans" text-anchor="middle"><tspan x="-449.09999999999997" dy="10">K1 mirror NC</tspan></text><circle cx="-450.0" cy="-403.68000000000006" r="4.32" style="stroke:black;fill:white;stroke-width:2.0;stroke-dasharray:-;" /><circle cx="-450.0" cy="-376.32000000000005" r="4.32" style="stroke:black;fill:white;stroke-width:2.0;stroke-dasharray:-;" /><text x="-449.09999999999997" y="-371.20000000000005" dominant-baseline="hanging" fill="black" font-size="10" font-family="sans" text-anchor="middle"><tspan x="-449.09999999999997" dy="10">K2 mirror NC</tspan></text><text x="-443.16" y="-299.20000000000005" dominant-baseline="hanging" fill="black" font-size="10" font-family="sans" text-anchor="middle"><tspan x="-443.16" dy="10">Start</tspan></text><text x="342.0" y="-551.8" dominant-baseline="ideographic" fill="black" font-size="10" font-family="sans" text-anchor="middle"><tspan x="342.0" dy="10">F1 6 A</tspan></text><text x="417.28370697246083" y="-78.17500000000001" dominant-baseline="ideographic" fill="black" font-size="10" font-family="sans" text-anchor="middle"><tspan x="417.28370697246083" dy="10">K1 24 VDC coil</tspan></text><text x="486.0" y="-572.05" dominant-baseline="ideographic" fill="black" font-size="10" font-family="sans" text-anchor="middle"><tspan x="486.0" dy="10">F2 6 A</tspan></text><text x="561.2837069724608" y="-192.925" dominant-baseline="ideographic" fill="black" font-size="10" font-family="sans" text-anchor="middle"><tspan x="561.2837069724608" dy="10">K2 24 VDC coil</tspan></text><text x="702.0" y="-803.5749999999998" dominant-baseline="ideographic" fill="black" font-size="10" font-family="sans" text-anchor="middle"><tspan x="702.0" dy="10">STOPPED</tspan></text><text x="-500.40000000000003" y="-643.6" dominant-baseline="central" fill="black" font-size="10" font-family="sans" text-anchor="end"><tspan x="-500.40000000000003" dy="10">+24 V</tspan></text><text x="-500.40000000000003" y="40.4" dominant-baseline="central" fill="black" font-size="10" font-family="sans" text-anchor="end"><tspan x="-500.40000000000003" dy="10">0 V</tspan></text><text x="129.6" y="94.39999999999999" dominant-baseline="central" fill="black" font-size="10" font-family="sans" text-anchor="middle"><tspan x="129.6" dy="10">CNC Cat-4 safety chain — sheet 2/3 (control / safety) — PNOZ 8 (774760, 24 VDC)</tspan></text></svg>