<svg xmlns="http://www.w3.org/2000/svg" xmlns:xlink="http://www.w3.org/1999/xlink" xml:lang="en" height="1106.4pt" width="1215.1999999999998pt" viewBox="-220.60000000000002 -420.00000000000006 1215.1999999999998 1106.4"><path d="M 0.0,72.0 L 36.0,72.0 L 72.0,72.0" style="stroke:black;fill:none;stroke-width:2.0;stroke-dasharray:-;stroke-linecap:round;stroke-linejoin:round;" /><path d="M 72.0,72.0 L 72.0,-0.0 L 72.00000000000001,-72.0" style="stroke:black;fill:none;stroke-width:2.0;stroke-dasharray:-;stroke-linecap:round;stroke-linejoin:round;" /><path d="M 72.0,-72.0 L 36.0,-72.0 L 0.0,-72.00000000000001" style="stroke:black;fill:none;stroke-width:2.0;stroke-dasharray:-;stroke-linecap:round;stroke-linejoin:round;" /><path d="M 0.0,-72.0 L 4.408728476930472e-15,-0.0 L 8.817456953860943e-15,72.0" style="stroke:black;fill:none;stroke-width:2.0;stroke-dasharray:-;stroke-linecap:round;stroke-linejoin:round;" /><path d="M 82.8,72.0 L 100.8,72.0 L 118.8,72.0" style="stroke:black;fill:none;stroke-width:2.0;stroke-dasharray:-;stroke-linecap:round;stroke-linejoin:round;" /><path d="M 118.8,72.0 L 118.8,-0.0 L 118.80000000000001,-72.0" style="stroke:black;fill:none;stroke-width:2.0;stroke-dasharray:-;stroke-linecap:round;stroke-linejoin:round;" /><path d="M 118.8,-72.0 L 100.8,-72.0 L 82.8,-72.0" style="stroke:black;fill:none;stroke-width:2.0;stroke-dasharray:-;stroke-linecap:round;stroke-linejoin:round;" /><path d="M 82.8,-72.0 L 82.8,-0.0 L 82.80000000000001,72.0" style="stroke:black;fill:none;stroke-width:2.0;stroke-dasharray:-;stroke-linecap:round;stroke-linejoin:round;" /><path d="M 129.6,72.0 L 174.6,72.0 L 219.6,72.0" style="stroke:black;fill:none;stroke-width:2.0;stroke-dasharray:-;stroke-linecap:round;stroke-linejoin:round;" /><path d="M 219.6,72.0 L 219.6,-0.0 L 219.6,-72.0" style="stroke:black;fill:none;stroke-width:2.0;stroke-dasharray:-;stroke-linecap:round;stroke-linejoin:round;" /><path d="M 219.6,-72.0 L 174.6,-72.0 L 129.6,-72.00000000000001" style="stroke:black;fill:none;stroke-width:2.0;stroke-dasharray:-;stroke-linecap:round;stroke-linejoin:round;" /><path d="M 129.6,-72.0 L 129.6,-0.0 L 129.6,72.0" style="stroke:black;fill:none;stroke-width:2.0;stroke-dasharray:-;stroke-linecap:round;stroke-linejoin:round;" /><path d="M 230.39999999999998,72.0 L 275.4,72.0 L 320.4,72.0" style="stroke:black;fill:none;stroke-width:2.0;stroke-dasharray:-;stroke-linecap:round;stroke-linejoin:round;" /><path d="M 320.4,72.0 L 320.4,-0.0 L 320.4,-72.0" style="stroke:black;fill:none;stroke-width:2.0;stroke-dasharray:-;stroke-linecap:round;stroke-linejoin:round;" /><path d="M 320.4,-72.0 L 275.4,-72.0 L 230.39999999999998,-72.00000000000001" style="stroke:black;fill:none;stroke-width:2.0;stroke-dasharray:-;stroke-linecap:round;stroke-linejoin:round;" /><path d="M 230.39999999999998,-72.0 L 230.39999999999998,-0.0 L 230.39999999999998,72.0" style="stroke:black;fill:none;stroke-width:2.0;stroke-dasharray:-;stroke-linecap:round;stroke-linejoin:round;" /><path d="M -18.0,86.39999999999999 L 160.2,86.39999999999999 L 338.4,86.39999999999999" style="stroke:black;fill:none;stroke-width:2.0;stroke-dasharray:-;stroke-linecap:round;stroke-linejoin:round;" /><path d="M 0.0,396.0 L 45.0,396.0 L 90.0,396.0" style="stroke:black;fill:none;stroke-width:2.0;stroke-dasharray:-;stroke-linecap:round;stroke-linejoin:round;" /><path d="M 90.0,396.0 L 90.0,324.0 L 90.00000000000001,252.0" style="stroke:black;fill:none;stroke-width:2.0;stroke-dasharray:-;stroke-linecap:round;stroke-linejoin:round;" /><path d="M 90.0,252.0 L 45.0,252.0 L 0.0,252.0" style="stroke:black;fill:none;stroke-width:2.0;stroke-dasharray:-;stroke-linecap:round;stroke-linejoin:round;" /><path d="M 0.0,252.0 L 4.408728476930472e-15,324.0 L 8.817456953860943e-15,396.0" style="stroke:black;fill:none;stroke-width:2.0;stroke-dasharray:-;stroke-linecap:round;stroke-linejoin:round;" /><path d="M 100.8,396.0 L 136.79999999999998,396.0 L 172.79999999999998,396.0" style="stroke:black;fill:none;stroke-width:2.0;stroke-dasharray:-;stroke-linecap:round;stroke-linejoin:round;" /><path d="M 172.79999999999998,396.0 L 172.79999999999998,324.0 L 172.79999999999998,252.0" style="stroke:black;fill:none;stroke-width:2.0;stroke-dasharray:-;stroke-linecap:round;stroke-linejoin:round;" /><path d="M 172.79999999999998,252.0 L 136.79999999999998,252.0 L 100.8,252.0" style="stroke:black;fill:none;stroke-width:2.0;stroke-dasharray:-;stroke-linecap:round;stroke-linejoin:round;" /><path d="M 100.8,252.0 L 100.8,324.0 L 100.80000000000001,396.0" style="stroke:black;fill:none;stroke-width:2.0;stroke-dasharray:-;stroke-linecap:round;stroke-linejoin:round;" /><path d="M 183.6,396.0 L 219.6,396.0 L 255.6,396.0" style="stroke:black;fill:none;stroke-width:2.0;stroke-dasharray:-;stroke-linecap:round;stroke-linejoin:round;" /><path d="M 255.6,396.0 L 255.6,324.0 L 255.6,252.0" style="stroke:black;fill:none;stroke-width:2.0;stroke-dasharray:-;stroke-linecap:round;stroke-linejoin:round;" /><path d="M 255.6,252.0 L 219.6,252.0 L 183.6,252.0" style="stroke:black;fill:none;stroke-width:2.0;stroke-dasharray:-;stroke-linecap:round;stroke-linejoin:round;" /><path d="M 183.6,252.0 L 183.6,324.0 L 183.6,396.0" style="stroke:black;fill:none;stroke-width:2.0;stroke-dasharray:-;stroke-linecap:round;stroke-linejoin:round;" /><path d="M 266.4,396.0 L 302.4,396.0 L 338.4,396.0" style="stroke:black;fill:none;stroke-width:2.0;stroke-dasharray:-;stroke-linecap:round;stroke-linejoin:round;" /><path d="M 338.4,396.0 L 338.4,324.0 L 338.4,252.0" style="stroke:black;fill:none;stroke-width:2.0;stroke-dasharray:-;stroke-linecap:round;stroke-linejoin:round;" /><path d="M 338.4,252.0 L 302.4,252.0 L 266.4,252.0" style="stroke:black;fill:none;stroke-width:2.0;stroke-dasharray:-;stroke-linecap:round;stroke-linejoin:round;" /><path d="M 266.4,252.0 L 266.4,324.0 L 266.4,396.0" style="stroke:black;fill:none;stroke-width:2.0;stroke-dasharray:-;stroke-linecap:round;stroke-linejoin:round;" /><path d="M -18.0,410.40000000000003 L 169.2,410.40000000000003 L 356.4,410.40000000000003" style="stroke:black;fill:none;stroke-width:2.0;stroke-dasharray:-;stroke-linecap:round;stroke-linejoin:round;" /><path d="M 0.0,-216.0 L 90.0,-216.0 L 180.0,-216.0" style="stroke:black;fill:none;stroke-width:2.0;stroke-dasharray:-;stroke-linecap:round;stroke-linejoin:round;" /><path d="M 180.0,-216.0 L 180.0,-262.8 L 180.0,-309.59999999999997" style="stroke:black;fill:none;stroke-width:2.0;stroke-dasharray:-;stroke-linecap:round;stroke-linejoin:round;" /><path d="M 180.0,-309.59999999999997 L 90.0,-309.59999999999997 L 0.0,-309.59999999999997" style="stroke:black;fill:none;stroke-width:2.0;stroke-dasharray:-;stroke-linecap:round;stroke-linejoin:round;" /><path d="M 0.0,-309.59999999999997 L 2.8656735100048058e-15,-262.8 L 5.7313470200096116e-15,-216.0" style="stroke:black;fill:none;stroke-width:2.0;stroke-dasharray:-;stroke-linecap:round;stroke-linejoin:round;" /><path d="M 468.0,288.0 L 594.0,288.0 L 720.0,288.0" style="stroke:black;fill:none;stroke-width:2.0;stroke-dasharray:-;stroke-linecap:round;stroke-linejoin:round;" /><path d="M 720.0,288.0 L 720.0,90.0 L 720.0,-108.0" style="stroke:black;fill:none;stroke-width:2.0;stroke-dasharray:-;stroke-linecap:round;stroke-linejoin:round;" /><path d="M 720.0,-108.0 L 594.0,-108.00000000000001 L 468.0,-108.00000000000003" style="stroke:black;fill:none;stroke-width:2.0;stroke-dasharray:-;stroke-linecap:round;stroke-linejoin:round;" /><path d="M 468.0,-108.0 L 468.0,90.0 L 468.0,288.0" style="stroke:black;fill:none;stroke-width:2.0;stroke-dasharray:-;stroke-linecap:round;stroke-linejoin:round;" /><path d="M 756.0,-158.39999999999998 L 837.0,-158.39999999999998 L 918.0,-158.39999999999998" style="stroke:black;fill:none;stroke-width:2.0;stroke-dasharray:-;stroke-linecap:round;stroke-linejoin:round;" /><path d="M 918.0,-158.39999999999998 L 918.0,-234.0 L 918.0,-309.59999999999997" style="stroke:black;fill:none;stroke-width:2.0;stroke-dasharray:-;stroke-linecap:round;stroke-linejoin:round;" /><path d="M 918.0,-309.59999999999997 L 837.0,-309.59999999999997 L 756.0,-309.59999999999997" style="stroke:black;fill:none;stroke-width:2.0;stroke-dasharray:-;stroke-linecap:round;stroke-linejoin:round;" /><path d="M 756.0,-309.59999999999997 L 756.0,-234.0 L 756.0,-158.39999999999998" style="stroke:black;fill:none;stroke-width:2.0;stroke-dasharray:-;stroke-linecap:round;stroke-linejoin:round;" /><path d="M 468.0,457.2 L 540.0,457.2 L 612.0,457.2" style="stroke:black;fill:none;stroke-width:2.0;stroke-dasharray:-;stroke-linecap:round;stroke-linejoin:round;" /><path d="M 612.0,457.2 L 612.0,399.59999999999997 L 612.0,342.0" style="stroke:black;fill:none;stroke-width:2.0;stroke-dasharray:-;stroke-linecap:round;stroke-linejoin:round;" /><path d="M 612.0,342.0 L 540.0,342.0 L 468.0,342.0" style="stroke:black;fill:none;stroke-width:2.0;stroke-dasharray:-;stroke-linecap:round;stroke-linejoin:round;" /><path d="M 468.0,342.0 L 468.0,399.59999999999997 L 468.0,457.2" style="stroke:black;fill:none;stroke-width:2.0;stroke-dasharray:-;stroke-linecap:round;stroke-linejoin:round;" /><path d="M 0.0,547.1999999999999 L 216.0,547.1999999999999 L 432.0,547.1999999999999" style="stroke:black;fill:none;stroke-width:2.0;stroke-dasharray:-;stroke-linecap:round;stroke-linejoin:round;" /><path d="M 432.0,547.1999999999999 L 432.0,525.6 L 432.0,504.0" style="stroke:black;fill:none;stroke-width:2.0;stroke-dasharray:-;stroke-linecap:round;stroke-linejoin:round;" /><path d="M 432.0,504.0 L 216.0,504.0 L 0.0,503.99999999999994" style="stroke:black;fill:none;stroke-width:2.0;stroke-dasharray:-;stroke-linecap:round;stroke-linejoin:round;" /><path d="M 0.0,504.0 L 1.3226185430791407e-15,525.6 L 2.6452370861582814e-15,547.1999999999999" style="stroke:black;fill:none;stroke-width:2.0;stroke-dasharray:-;stroke-linecap:round;stroke-linejoin:round;" /><path d="M 0.0,194.4 L 171.0,194.4 L 342.0,194.4" style="stroke:black;fill:none;stroke-width:2.0;stroke-dasharray:-;stroke-linecap:round;stroke-linejoin:round;" /><path d="M 342.0,194.4 L 342.0,158.4 L 342.0,122.39999999999999" style="stroke:black;fill:none;stroke-width:2.0;stroke-dasharray:-;stroke-linecap:round;stroke-linejoin:round;" /><path d="M 342.0,122.39999999999999 L 171.0,122.39999999999998 L 0.0,122.39999999999995" style="stroke:black;fill:none;stroke-width:2.0;stroke-dasharray:-;stroke-linecap:round;stroke-linejoin:round;" /><path d="M 0.0,122.39999999999999 L 2.2043642384652362e-15,158.4 L 4.4087284769304724e-15,194.4" style="stroke:black;fill:none;stroke-width:2.0;stroke-dasharray:-;stroke-linecap:round;stroke-linejoin:round;" /><path d="M 42.75,194.4 L 78.75,158.4 L 114.75000000000001,122.39999999999999" style="stroke:black;fill:none;stroke-width:2.0;stroke-dasharray:-;stroke-linecap:round;stroke-linejoin:round;" /><path d="M 85.5,194.4 L 121.5,158.4 L 157.5,122.4" style="stroke:black;fill:none;stroke-width:2.0;stroke-dasharray:-;stroke-linecap:round;stroke-linejoin:round;" /><path d="M 128.25,194.4 L 164.25,158.4 L 200.25,122.4" style="stroke:black;fill:none;stroke-width:2.0;stroke-dasharray:-;stroke-linecap:round;stroke-linejoin:round;" /><path d="M 171.0,194.4 L 207.0,158.4 L 243.0,122.4" style="stroke:black;fill:none;stroke-width:2.0;stroke-dasharray:-;stroke-linecap:round;stroke-linejoin:round;" /><path d="M 213.75,194.4 L 249.75,158.4 L 285.75,122.4" style="stroke:black;fill:none;stroke-width:2.0;stroke-dasharray:-;stroke-linecap:round;stroke-linejoin:round;" /><path d="M 256.5,194.4 L 292.5,158.4 L 328.5,122.4" style="stroke:black;fill:none;stroke-width:2.0;stroke-dasharray:-;stroke-linecap:round;stroke-linejoin:round;" /><path d="M 299.25,194.4 L 320.625,173.025 L 342.0,151.65" style="stroke:black;fill:none;stroke-width:2.0;stroke-dasharray:-;stroke-linecap:round;stroke-linejoin:round;" /><path d="M 0.0,475.20000000000005 L 171.0,475.20000000000005 L 342.0,475.20000000000005" style="stroke:black;fill:none;stroke-width:2.0;stroke-dasharray:-;stroke-linecap:round;stroke-linejoin:round;" /><path d="M 342.0,475.20000000000005 L 342.0,442.8 L 342.0,410.40000000000003" style="stroke:black;fill:none;stroke-width:2.0;stroke-dasharray:-;stroke-linecap:round;stroke-linejoin:round;" /><path d="M 342.0,410.40000000000003 L 171.0,410.40000000000003 L 0.0,410.4" style="stroke:black;fill:none;stroke-width:2.0;stroke-dasharray:-;stroke-linecap:round;stroke-linejoin:round;" /><path d="M 0.0,410.40000000000003 L 1.983927814618713e-15,442.8 L 3.967855629237426e-15,475.20000000000005" style="stroke:black;fill:none;stroke-width:2.0;stroke-dasharray:-;stroke-linecap:round;stroke-linejoin:round;" /><path d="M 42.75,475.20000000000005 L 75.15,442.8 L 107.55000000000003,410.40000000000003" style="stroke:black;fill:none;stroke-width:2.0;stroke-dasharray:-;stroke-linecap:round;stroke-linejoin:round;" /><path d="M 85.5,475.20000000000005 L 117.9,442.8 L 150.3,410.40000000000003" style="stroke:black;fill:none;stroke-width:2.0;stroke-dasharray:-;stroke-linecap:round;stroke-linejoin:round;" /><path d="M 128.25,475.20000000000005 L 160.65,442.8 L 193.05,410.40000000000003" style="stroke:black;fill:none;stroke-width:2.0;stroke-dasharray:-;stroke-linecap:round;stroke-linejoin:round;" /><path d="M 171.0,475.20000000000005 L 203.4,442.8 L 235.8,410.40000000000003" style="stroke:black;fill:none;stroke-width:2.0;stroke-dasharray:-;stroke-linecap:round;stroke-linejoin:round;" /><path d="M 213.75,475.20000000000005 L 246.15,442.8 L 278.55,410.40000000000003" style="stroke:black;fill:none;stroke-width:2.0;stroke-dasharray:-;stroke-linecap:round;stroke-linejoin:round;" /><path d="M 256.5,475.20000000000005 L 288.90000000000003,442.8 L 321.3,410.40000000000003" style="stroke:black;fill:none;stroke-width:2.0;stroke-dasharray:-;stroke-linecap:round;stroke-linejoin:round;" /><path d="M 299.25,475.20000000000005 L 320.625,453.82500000000005 L 342.0,432.45000000000005" style="stroke:black;fill:none;stroke-width:2.0;stroke-dasharray:-;stroke-linecap:round;stroke-linejoin:round;" /><path d="M -216.0,619.1999999999999 L 387.0,619.1999999999999 L 990.0,619.1999999999999" style="stroke:black;fill:none;stroke-width:2.0;stroke-dasharray:-;stroke-linecap:round;stroke-linejoin:round;" /><path d="M 990.0,619.1999999999999 L 990.0,118.80000000000003 L 990.0,-381.5999999999999" style="stroke:black;fill:none;stroke-width:2.0;stroke-dasharray:-;stroke-linecap:round;stroke-linejoin:round;" /><path d="M 990.0,-381.59999999999997 L 387.0,-381.6 L -216.0,-381.60000000000014" style="stroke:black;fill:none;stroke-width:2.0;stroke-dasharray:-;stroke-linecap:round;stroke-linejoin:round;" /><path d="M -216.0,-381.59999999999997 L -215.99999999999997,118.79999999999995 L -215.99999999999994,619.1999999999998" style="stroke:black;fill:none;stroke-width:2.0;stroke-dasharray:-;stroke-linecap:round;stroke-linejoin:round;" /><text x="39.6" y="-12.4" dominant-baseline="central" fill="black" font-size="8" font-family="sans" text-anchor="middle"><tspan x="39.6" dy="8">QF1</tspan><tspan x="39.6" dy="8">MCB 2P</tspan><tspan x="39.6" dy="8">C20</tspan></text><text x="104.39999999999999" y="-8.4" dominant-baseline="central" fill="black" font-size="8" font-family="sans" text-anchor="middle"><tspan x="104.39999999999999" dy="8">FU1</tspan><tspan x="104.39999999999999" dy="8">SMPS 2A</tspan></text><text x="178.2" y="-12.4" dominant-baseline="central" fill="black" font-size="8" font-family="sans" text-anchor="middle"><tspan x="178.2" dy="8">K1</tspan><tspan x="178.2" dy="8">LC1D18</tspan><tspan x="178.2" dy="8">+mirror</tspan></text><text x="278.99999999999994" y="-12.4" dominant-baseline="central" fill="black" font-size="8" font-family="sans" text-anchor="middle"><tspan x="278.99999999999994" dy="8">K2</tspan><tspan x="278.99999999999994" dy="8">LC1D18</tspan><tspan x="278.99999999999994" dy="8">+mirror</tspan></text><text x="3.6" y="-117.0" dominant-baseline="central" fill="black" font-size="9" font-family="sans" text-anchor="end"><tspan x="3.6" dy="9">Rail 1 — power / switchgear</tspan></text><text x="48.6" y="311.59999999999997" dominant-baseline="central" fill="black" font-size="8" font-family="sans" text-anchor="middle"><tspan x="48.6" dy="8">A1</tspan><tspan x="48.6" dy="8">PNOZ 8</tspan><tspan x="48.6" dy="8">774760</tspan></text><text x="140.4" y="311.59999999999997" dominant-baseline="central" fill="black" font-size="8" font-family="sans" text-anchor="middle"><tspan x="140.4" dy="8">G1</tspan><tspan x="140.4" dy="8">SMPS</tspan><tspan x="140.4" dy="8">24V/3A</tspan></text><text x="223.2" y="315.59999999999997" dominant-baseline="central" fill="black" font-size="8" font-family="sans" text-anchor="middle"><tspan x="223.2" dy="8">X1</tspan><tspan x="223.2" dy="8">TB +24V</tspan></text><text x="305.99999999999994" y="315.59999999999997" dominant-baseline="central" fill="black" font-size="8" font-family="sans" text-anchor="middle"><tspan x="305.99999999999994" dy="8">X2</tspan><tspan x="305.99999999999994" dy="8">TB 0V</tspan></text><text x="3.6" y="207.0" dominant-baseline="central" fill="black" font-size="9" font-family="sans" text-anchor="end"><tspan x="3.6" dy="9">Rail 2 — control / 24 V</tspan></text><text x="93.60000000000001" y="-275.2" dominant-baseline="central" fill="black" font-size="8" font-family="sans" text-anchor="middle"><tspan x="93.60000000000001" dy="8">QS1</tspan><tspan x="93.60000000000001" dy="8">Isolator IP68</tspan><tspan x="93.60000000000001" dy="8">(enclosure door)</tspan></text><text x="597.6" y="77.60000000000001" dominant-baseline="central" fill="black" font-size="8" font-family="sans" text-anchor="middle"><tspan x="597.6" dy="8">U1</tspan><tspan x="597.6" dy="8">VFD YL620-A</tspan><tspan x="597.6" dy="8">4kW</tspan></text><text x="840.6" y="-250.4" dominant-baseline="central" fill="black" font-size="8" font-family="sans" text-anchor="middle"><tspan x="840.6" dy="8">R1</tspan><tspan x="840.6" dy="8">Brake R</tspan><tspan x="840.6" dy="8">47-60Ω 1kW</tspan><tspan x="840.6" dy="8">(mount high / vented)</tspan></text><text x="543.6" y="391.2" dominant-baseline="central" fill="black" font-size="8" font-family="sans" text-anchor="middle"><tspan x="543.6" dy="8">Z1</tspan><tspan x="543.6" dy="8">EMC filter</tspan></text><text x="219.6" y="521.1999999999999" dominant-baseline="central" fill="black" font-size="8" font-family="sans" text-anchor="middle"><tspan x="219.6" dy="8">PE — earth bar</tspan></text><text x="171.0" y="146.30883117545687" dominant-baseline="central" fill="black" font-size="7" font-family="sans" text-anchor="middle"><tspan x="171.0" dy="7">wire duct</tspan></text><text x="171.0" y="430.7088311754569" dominant-baseline="central" fill="black" font-size="7" font-family="sans" text-anchor="middle"><tspan x="171.0" dy="7">wire duct</tspan></text><text x="390.59999999999997" y="-420.40000000000003" dominant-baseline="central" fill="black" font-size="10" font-family="sans" text-anchor="middle"><tspan x="390.59999999999997" dy="10">Enclosure ~600 x 400 mm</tspan></text><text x="390.59999999999997" y="666.8000000000001" dominant-baseline="central" fill="black" font-size="10" font-family="sans" text-anchor="middle"><tspan x="390.59999999999997" dy="10">CNC Cat-4 panel — DIN-rail + back-panel layout</tspan></text></svg>