<svg xmlns="http://www.w3.org/2000/svg" xmlns:xlink="http://www.w3.org/1999/xlink" xml:lang="en" height="1092.3999999999999pt" width="1107.1999999999998pt" viewBox="-4.6 -186.39999999999998 1107.1999999999998 1092.3999999999999"><path d="M 0.0,-0.0 L 126.0,-0.0 L 126.0,-144.0 L 0.0,-144.0 L 0.0,-0.0" style="stroke:black;fill:none;stroke-width:2.0;stroke-dasharray:-;stroke-linecap:round;stroke-linejoin:round;" /><path d="M 126.0,-18.0 L 144.0,-18.0" style="stroke:black;fill:none;stroke-width:2.0;stroke-dasharray:-;stroke-linecap:round;stroke-linejoin:round;" /><path d="M 126.0,-126.0 L 144.0,-126.0" style="stroke:black;fill:none;stroke-width:2.0;stroke-dasharray:-;stroke-linecap:round;stroke-linejoin:round;" /><path d="M 324.0,-0.0 L 450.0,-0.0 L 450.0,-144.0 L 324.0,-144.0 L 324.0,-0.0" style="stroke:black;fill:none;stroke-width:2.0;stroke-dasharray:-;stroke-linecap:round;stroke-linejoin:round;" /><path d="M 324.0,-18.0 L 306.0,-18.0" style="stroke:black;fill:none;stroke-width:2.0;stroke-dasharray:-;stroke-linecap:round;stroke-linejoin:round;" /><path d="M 324.0,-126.0 L 306.0,-126.0" style="stroke:black;fill:none;stroke-width:2.0;stroke-dasharray:-;stroke-linecap:round;stroke-linejoin:round;" /><path d="M 450.0,-18.0 L 468.0,-18.0" style="stroke:black;fill:none;stroke-width:2.0;stroke-dasharray:-;stroke-linecap:round;stroke-linejoin:round;" /><path d="M 450.0,-126.0 L 468.0,-126.0" style="stroke:black;fill:none;stroke-width:2.0;stroke-dasharray:-;stroke-linecap:round;stroke-linejoin:round;" /><path d="M 648.0,-0.0 L 774.0,-0.0 L 774.0,-144.0 L 648.0,-144.0 L 648.0,-0.0" style="stroke:black;fill:none;stroke-width:2.0;stroke-dasharray:-;stroke-linecap:round;stroke-linejoin:round;" /><path d="M 648.0,-18.0 L 630.0,-18.0" style="stroke:black;fill:none;stroke-width:2.0;stroke-dasharray:-;stroke-linecap:round;stroke-linejoin:round;" /><path d="M 648.0,-126.0 L 630.0,-126.0" style="stroke:black;fill:none;stroke-width:2.0;stroke-dasharray:-;stroke-linecap:round;stroke-linejoin:round;" /><path d="M 774.0,-18.0 L 792.0,-18.0" style="stroke:black;fill:none;stroke-width:2.0;stroke-dasharray:-;stroke-linecap:round;stroke-linejoin:round;" /><path d="M 774.0,-126.0 L 792.0,-126.0" style="stroke:black;fill:none;stroke-width:2.0;stroke-dasharray:-;stroke-linecap:round;stroke-linejoin:round;" /><path d="M 972.0,-0.0 L 1098.0,-0.0 L 1098.0,-144.0 L 972.0,-144.0 L 972.0,-0.0" style="stroke:black;fill:none;stroke-width:2.0;stroke-dasharray:-;stroke-linecap:round;stroke-linejoin:round;" /><path d="M 972.0,-18.0 L 954.0,-18.0" style="stroke:black;fill:none;stroke-width:2.0;stroke-dasharray:-;stroke-linecap:round;stroke-linejoin:round;" /><path d="M 972.0,-126.0 L 954.0,-126.0" style="stroke:black;fill:none;stroke-width:2.0;stroke-dasharray:-;stroke-linecap:round;stroke-linejoin:round;" /><path d="M 324.0,396.0 L 450.0,396.0 L 450.0,252.0 L 324.0,252.0 L 324.0,396.0" style="stroke:black;fill:none;stroke-width:2.0;stroke-dasharray:-;stroke-linecap:round;stroke-linejoin:round;" /><path d="M 324.0,324.0 L 306.0,324.0" style="stroke:black;fill:none;stroke-width:2.0;stroke-dasharray:-;stroke-linecap:round;stroke-linejoin:round;" /><path d="M 450.0,324.0 L 468.0,324.0" style="stroke:black;fill:none;stroke-width:2.0;stroke-dasharray:-;stroke-linecap:round;stroke-linejoin:round;" /><path d="M 648.0,396.0 L 774.0,396.0 L 774.0,252.0 L 648.0,252.0 L 648.0,396.0" style="stroke:black;fill:none;stroke-width:2.0;stroke-dasharray:-;stroke-linecap:round;stroke-linejoin:round;" /><path d="M 648.0,324.0 L 630.0,324.0" style="stroke:black;fill:none;stroke-width:2.0;stroke-dasharray:-;stroke-linecap:round;stroke-linejoin:round;" /><path d="M 774.0,324.0 L 792.0,324.0" style="stroke:black;fill:none;stroke-width:2.0;stroke-dasharray:-;stroke-linecap:round;stroke-linejoin:round;" /><path d="M 0.0,792.0 L 126.0,792.0 L 126.0,648.0 L 0.0,648.0 L 0.0,792.0" style="stroke:black;fill:none;stroke-width:2.0;stroke-dasharray:-;stroke-linecap:round;stroke-linejoin:round;" /><path d="M 126.0,774.0 L 144.0,774.0" style="stroke:black;fill:none;stroke-width:2.0;stroke-dasharray:-;stroke-linecap:round;stroke-linejoin:round;" /><path d="M 126.0,666.0 L 144.0,666.0" style="stroke:black;fill:none;stroke-width:2.0;stroke-dasharray:-;stroke-linecap:round;stroke-linejoin:round;" /><path d="M 324.0,792.0 L 450.0,792.0 L 450.0,561.6 L 324.0,561.6 L 324.0,792.0" style="stroke:black;fill:none;stroke-width:2.0;stroke-dasharray:-;stroke-linecap:round;stroke-linejoin:round;" /><path d="M 324.0,774.0 L 306.0,774.0" style="stroke:black;fill:none;stroke-width:2.0;stroke-dasharray:-;stroke-linecap:round;stroke-linejoin:round;" /><path d="M 324.0,579.6 L 306.0,579.6" style="stroke:black;fill:none;stroke-width:2.0;stroke-dasharray:-;stroke-linecap:round;stroke-linejoin:round;" /><path d="M 450.0,774.0 L 468.0,774.0" style="stroke:black;fill:none;stroke-width:2.0;stroke-dasharray:-;stroke-linecap:round;stroke-linejoin:round;" /><path d="M 450.0,709.1999999999999 L 468.0,709.1999999999999" style="stroke:black;fill:none;stroke-width:2.0;stroke-dasharray:-;stroke-linecap:round;stroke-linejoin:round;" /><path d="M 450.0,644.4 L 468.0,644.4" style="stroke:black;fill:none;stroke-width:2.0;stroke-dasharray:-;stroke-linecap:round;stroke-linejoin:round;" /><path d="M 450.0,579.6 L 468.0,579.6" style="stroke:black;fill:none;stroke-width:2.0;stroke-dasharray:-;stroke-linecap:round;stroke-linejoin:round;" /><path d="M 972.0,792.0 L 1098.0,792.0 L 1098.0,648.0 L 972.0,648.0 L 972.0,792.0" style="stroke:black;fill:none;stroke-width:2.0;stroke-dasharray:-;stroke-linecap:round;stroke-linejoin:round;" /><path d="M 972.0,774.0 L 954.0,774.0" style="stroke:black;fill:none;stroke-width:2.0;stroke-dasharray:-;stroke-linecap:round;stroke-linejoin:round;" /><path d="M 972.0,666.0 L 954.0,666.0" style="stroke:black;fill:none;stroke-width:2.0;stroke-dasharray:-;stroke-linecap:round;stroke-linejoin:round;" /><path d="M 144.0,774.0 L 225.0,774.0 L 306.0,774.0" style="stroke:black;fill:none;stroke-width:2.0;stroke-dasharray:-;stroke-linecap:round;stroke-linejoin:round;" /><path d="M 144.0,666.0 L 167.4,666.0 L 190.79999999999998,666.0" style="stroke:black;fill:none;stroke-width:2.0;stroke-dasharray:-;stroke-linecap:round;stroke-linejoin:round;" /><path d="M 190.79999999999998,666.0 L 190.79999999999998,622.8000000000001 L 190.79999999999998,579.6" style="stroke:black;fill:none;stroke-width:2.0;stroke-dasharray:-;stroke-linecap:round;stroke-linejoin:round;" /><path d="M 190.79999999999998,579.6 L 248.4,579.6 L 306.0,579.6" style="stroke:black;fill:none;stroke-width:2.0;stroke-dasharray:-;stroke-linecap:round;stroke-linejoin:round;" /><path d="M 468.0,579.6 L 500.40000000000003,579.6 L 532.8000000000001,579.6" style="stroke:black;fill:none;stroke-width:2.0;stroke-dasharray:-;stroke-linecap:round;stroke-linejoin:round;" /><path d="M 532.8000000000001,579.6 L 532.8000000000001,451.8 L 532.8000000000001,324.0" style="stroke:black;fill:none;stroke-width:2.0;stroke-dasharray:-;stroke-linecap:round;stroke-linejoin:round;" /><path d="M 532.8000000000001,324.0 L 419.40000000000003,324.0 L 306.0,324.0" style="stroke:black;fill:none;stroke-width:2.0;stroke-dasharray:-;stroke-linecap:round;stroke-linejoin:round;" /><path d="M 468.0,644.4 L 509.40000000000003,644.4 L 550.8000000000001,644.4" style="stroke:black;fill:none;stroke-width:2.0;stroke-dasharray:-;stroke-linecap:round;stroke-linejoin:round;" /><path d="M 550.8000000000001,644.4 L 550.8000000000001,484.2 L 550.8000000000001,324.0" style="stroke:black;fill:none;stroke-width:2.0;stroke-dasharray:-;stroke-linecap:round;stroke-linejoin:round;" /><path d="M 550.8000000000001,324.0 L 590.4,324.0 L 630.0,324.0" style="stroke:black;fill:none;stroke-width:2.0;stroke-dasharray:-;stroke-linecap:round;stroke-linejoin:round;" /><path d="M 468.0,774.0 L 711.0,774.0 L 954.0,774.0" style="stroke:black;fill:none;stroke-width:2.0;stroke-dasharray:-;stroke-linecap:round;stroke-linejoin:round;" /><path d="M 468.0,709.1999999999999 L 547.1999999999999,709.1999999999999 L 626.4,709.1999999999999" style="stroke:black;fill:none;stroke-width:2.0;stroke-dasharray:-;stroke-linecap:round;stroke-linejoin:round;" /><path d="M 626.4,709.1999999999999 L 626.4,687.6 L 626.4,666.0" style="stroke:black;fill:none;stroke-width:2.0;stroke-dasharray:-;stroke-linecap:round;stroke-linejoin:round;" /><path d="M 626.4,666.0 L 790.1999999999999,666.0 L 954.0,666.0" style="stroke:black;fill:none;stroke-width:2.0;stroke-dasharray:-;stroke-linecap:round;stroke-linejoin:round;" /><path d="M 144.0,-18.0 L 225.0,-18.0 L 306.0,-18.0" style="stroke:black;fill:none;stroke-width:2.0;stroke-dasharray:-;stroke-linecap:round;stroke-linejoin:round;" /><path d="M 144.0,-126.0 L 225.0,-126.0 L 306.0,-126.0" style="stroke:black;fill:none;stroke-width:2.0;stroke-dasharray:-;stroke-linecap:round;stroke-linejoin:round;" /><path d="M 468.0,-18.0 L 549.0,-18.0 L 630.0,-18.0" style="stroke:black;fill:none;stroke-width:2.0;stroke-dasharray:-;stroke-linecap:round;stroke-linejoin:round;" /><path d="M 468.0,-126.0 L 549.0,-126.0 L 630.0,-126.0" style="stroke:black;fill:none;stroke-width:2.0;stroke-dasharray:-;stroke-linecap:round;stroke-linejoin:round;" /><path d="M 792.0,-18.0 L 873.0,-18.0 L 954.0,-18.0" style="stroke:black;fill:none;stroke-width:2.0;stroke-dasharray:-;stroke-linecap:round;stroke-linejoin:round;" /><path d="M 792.0,-126.0 L 873.0,-126.0 L 954.0,-126.0" style="stroke:black;fill:none;stroke-width:2.0;stroke-dasharray:-;stroke-linecap:round;stroke-linejoin:round;" /><path d="M 387.0,324.0 L 387.0,316.8 L 387.0,309.59999999999997" style="stroke:black;fill:none;stroke-width:2.0;stroke-dasharray:-;stroke-linecap:round;stroke-linejoin:round;" /><path d="M 387.0,299.52 L 387.0,292.32000000000005 L 387.0,285.12" style="stroke:black;fill:none;stroke-width:2.0;stroke-dasharray:-;stroke-linecap:round;stroke-linejoin:round;" /><path d="M 387.0,275.03999999999996 L 387.0,267.84 L 387.0,260.64" style="stroke:black;fill:none;stroke-width:2.0;stroke-dasharray:-;stroke-linecap:round;stroke-linejoin:round;" /><path d="M 387.0,250.56 L 387.0,243.35999999999999 L 387.0,236.16000000000003" style="stroke:black;fill:none;stroke-width:2.0;stroke-dasharray:-;stroke-linecap:round;stroke-linejoin:round;" /><path d="M 387.0,226.07999999999998 L 387.0,218.88 L 387.0,211.68" style="stroke:black;fill:none;stroke-width:2.0;stroke-dasharray:-;stroke-linecap:round;stroke-linejoin:round;" /><path d="M 387.0,201.6 L 387.0,194.39999999999998 L 387.0,187.2" style="stroke:black;fill:none;stroke-width:2.0;stroke-dasharray:-;stroke-linecap:round;stroke-linejoin:round;" /><path d="M 387.0,177.12 L 387.0,169.92 L 387.0,162.71999999999997" style="stroke:black;fill:none;stroke-width:2.0;stroke-dasharray:-;stroke-linecap:round;stroke-linejoin:round;" /><path d="M 387.0,152.64000000000001 L 387.0,145.44 L 387.0,138.24" style="stroke:black;fill:none;stroke-width:2.0;stroke-dasharray:-;stroke-linecap:round;stroke-linejoin:round;" /><path d="M 387.0,128.16000000000003 L 387.0,120.96000000000001 L 387.0,113.76" style="stroke:black;fill:none;stroke-width:2.0;stroke-dasharray:-;stroke-linecap:round;stroke-linejoin:round;" /><path d="M 387.0,103.68000000000004 L 387.0,96.48000000000002 L 387.0,89.28000000000002" style="stroke:black;fill:none;stroke-width:2.0;stroke-dasharray:-;stroke-linecap:round;stroke-linejoin:round;" /><path d="M 387.0,79.20000000000005 L 387.0,72.00000000000003 L 387.0,64.80000000000003" style="stroke:black;fill:none;stroke-width:2.0;stroke-dasharray:-;stroke-linecap:round;stroke-linejoin:round;" /><path d="M 387.0,54.72000000000005 L 387.0,47.52000000000004 L 387.0,40.320000000000036" style="stroke:black;fill:none;stroke-width:2.0;stroke-dasharray:-;stroke-linecap:round;stroke-linejoin:round;" /><path d="M 387.0,30.24000000000006 L 387.0,23.040000000000052 L 387.0,15.840000000000046" style="stroke:black;fill:none;stroke-width:2.0;stroke-dasharray:-;stroke-linecap:round;stroke-linejoin:round;" /><path d="M 387.0,5.760000000000069 L 387.0,-1.4399999999999373 L 387.0,-8.639999999999944" style="stroke:black;fill:none;stroke-width:2.0;stroke-dasharray:-;stroke-linecap:round;stroke-linejoin:round;" /><path d="M 711.0,324.0 L 711.0,316.8 L 711.0,309.59999999999997" style="stroke:black;fill:none;stroke-width:2.0;stroke-dasharray:-;stroke-linecap:round;stroke-linejoin:round;" /><path d="M 711.0,299.52 L 711.0,292.32000000000005 L 711.0,285.12" style="stroke:black;fill:none;stroke-width:2.0;stroke-dasharray:-;stroke-linecap:round;stroke-linejoin:round;" /><path d="M 711.0,275.03999999999996 L 711.0,267.84 L 711.0,260.64" style="stroke:black;fill:none;stroke-width:2.0;stroke-dasharray:-;stroke-linecap:round;stroke-linejoin:round;" /><path d="M 711.0,250.56 L 711.0,243.35999999999999 L 711.0,236.16000000000003" style="stroke:black;fill:none;stroke-width:2.0;stroke-dasharray:-;stroke-linecap:round;stroke-linejoin:round;" /><path d="M 711.0,226.07999999999998 L 711.0,218.88 L 711.0,211.68" style="stroke:black;fill:none;stroke-width:2.0;stroke-dasharray:-;stroke-linecap:round;stroke-linejoin:round;" /><path d="M 711.0,201.6 L 711.0,194.39999999999998 L 711.0,187.2" style="stroke:black;fill:none;stroke-width:2.0;stroke-dasharray:-;stroke-linecap:round;stroke-linejoin:round;" /><path d="M 711.0,177.12 L 711.0,169.92 L 711.0,162.71999999999997" style="stroke:black;fill:none;stroke-width:2.0;stroke-dasharray:-;stroke-linecap:round;stroke-linejoin:round;" /><path d="M 711.0,152.64000000000001 L 711.0,145.44 L 711.0,138.24" style="stroke:black;fill:none;stroke-width:2.0;stroke-dasharray:-;stroke-linecap:round;stroke-linejoin:round;" /><path d="M 711.0,128.16000000000003 L 711.0,120.96000000000001 L 711.0,113.76" style="stroke:black;fill:none;stroke-width:2.0;stroke-dasharray:-;stroke-linecap:round;stroke-linejoin:round;" /><path d="M 711.0,103.68000000000004 L 711.0,96.48000000000002 L 711.0,89.28000000000002" style="stroke:black;fill:none;stroke-width:2.0;stroke-dasharray:-;stroke-linecap:round;stroke-linejoin:round;" /><path d="M 711.0,79.20000000000005 L 711.0,72.00000000000003 L 711.0,64.80000000000003" style="stroke:black;fill:none;stroke-width:2.0;stroke-dasharray:-;stroke-linecap:round;stroke-linejoin:round;" /><path d="M 711.0,54.72000000000005 L 711.0,47.52000000000004 L 711.0,40.320000000000036" style="stroke:black;fill:none;stroke-width:2.0;stroke-dasharray:-;stroke-linecap:round;stroke-linejoin:round;" /><path d="M 711.0,30.24000000000006 L 711.0,23.040000000000052 L 711.0,15.840000000000046" style="stroke:black;fill:none;stroke-width:2.0;stroke-dasharray:-;stroke-linecap:round;stroke-linejoin:round;" /><path d="M 711.0,5.760000000000069 L 711.0,-1.4399999999999373 L 711.0,-8.639999999999944" style="stroke:black;fill:none;stroke-width:2.0;stroke-dasharray:-;stroke-linecap:round;stroke-linejoin:round;" /><text x="128.70000000000002" y="-31.7" dominant-baseline="ideographic" fill="black" font-size="11" font-family="sans" text-anchor="start"><tspan x="128.70000000000002" dy="11">1</tspan></text><text x="120.60000000000001" y="-32.0" dominant-baseline="central" fill="black" font-size="14" font-family="sans" text-anchor="end"><tspan x="120.60000000000001" dy="14">L</tspan></text><text x="128.70000000000002" y="-139.70000000000002" dominant-baseline="ideographic" fill="black" font-size="11" font-family="sans" text-anchor="start"><tspan x="128.70000000000002" dy="11">2</tspan></text><text x="120.60000000000001" y="-140.0" dominant-baseline="central" fill="black" font-size="14" font-family="sans" text-anchor="end"><tspan x="120.60000000000001" dy="14">N</tspan></text><text x="147.6" y="-186.29999999999998" dominant-baseline="central" fill="black" font-size="9" font-family="sans" text-anchor="middle"><tspan x="147.6" dy="9">MAINS</tspan><tspan x="147.6" dy="9">220 VAC 1ph</tspan></text><text x="321.3" y="-31.7" dominant-baseline="ideographic" fill="black" font-size="11" font-family="sans" text-anchor="end"><tspan x="321.3" dy="11">1</tspan></text><text x="329.40000000000003" y="-32.0" dominant-baseline="central" fill="black" font-size="14" font-family="sans" text-anchor="start"><tspan x="329.40000000000003" dy="14">1</tspan></text><text x="321.3" y="-139.70000000000002" dominant-baseline="ideographic" fill="black" font-size="11" font-family="sans" text-anchor="end"><tspan x="321.3" dy="11">2</tspan></text><text x="329.40000000000003" y="-140.0" dominant-baseline="central" fill="black" font-size="14" font-family="sans" text-anchor="start"><tspan x="329.40000000000003" dy="14">3</tspan></text><text x="452.7" y="-31.7" dominant-baseline="ideographic" fill="black" font-size="11" font-family="sans" text-anchor="start"><tspan x="452.7" dy="11">1</tspan></text><text x="444.59999999999997" y="-32.0" dominant-baseline="central" fill="black" font-size="14" font-family="sans" text-anchor="end"><tspan x="444.59999999999997" dy="14">2</tspan></text><text x="452.7" y="-139.70000000000002" dominant-baseline="ideographic" fill="black" font-size="11" font-family="sans" text-anchor="start"><tspan x="452.7" dy="11">2</tspan></text><text x="444.59999999999997" y="-140.0" dominant-baseline="central" fill="black" font-size="14" font-family="sans" text-anchor="end"><tspan x="444.59999999999997" dy="14">4</tspan></text><text x="390.59999999999997" y="-186.29999999999998" dominant-baseline="central" fill="black" font-size="9" font-family="sans" text-anchor="middle"><tspan x="390.59999999999997" dy="9">K1 poles</tspan><tspan x="390.59999999999997" dy="9">2x NO</tspan></text><text x="645.3000000000001" y="-31.7" dominant-baseline="ideographic" fill="black" font-size="11" font-family="sans" text-anchor="end"><tspan x="645.3000000000001" dy="11">1</tspan></text><text x="653.4" y="-32.0" dominant-baseline="central" fill="black" font-size="14" font-family="sans" text-anchor="start"><tspan x="653.4" dy="14">1</tspan></text><text x="645.3000000000001" y="-139.70000000000002" dominant-baseline="ideographic" fill="black" font-size="11" font-family="sans" text-anchor="end"><tspan x="645.3000000000001" dy="11">2</tspan></text><text x="653.4" y="-140.0" dominant-baseline="central" fill="black" font-size="14" font-family="sans" text-anchor="start"><tspan x="653.4" dy="14">3</tspan></text><text x="776.6999999999999" y="-31.7" dominant-baseline="ideographic" fill="black" font-size="11" font-family="sans" text-anchor="start"><tspan x="776.6999999999999" dy="11">1</tspan></text><text x="768.6" y="-32.0" dominant-baseline="central" fill="black" font-size="14" font-family="sans" text-anchor="end"><tspan x="768.6" dy="14">2</tspan></text><text x="776.6999999999999" y="-139.70000000000002" dominant-baseline="ideographic" fill="black" font-size="11" font-family="sans" text-anchor="start"><tspan x="776.6999999999999" dy="11">2</tspan></text><text x="768.6" y="-140.0" dominant-baseline="central" fill="black" font-size="14" font-family="sans" text-anchor="end"><tspan x="768.6" dy="14">4</tspan></text><text x="714.6" y="-186.29999999999998" dominant-baseline="central" fill="black" font-size="9" font-family="sans" text-anchor="middle"><tspan x="714.6" dy="9">K2 poles</tspan><tspan x="714.6" dy="9">2x NO</tspan></text><text x="969.3000000000001" y="-31.7" dominant-baseline="ideographic" fill="black" font-size="11" font-family="sans" text-anchor="end"><tspan x="969.3000000000001" dy="11">1</tspan></text><text x="977.4" y="-32.0" dominant-baseline="central" fill="black" font-size="14" font-family="sans" text-anchor="start"><tspan x="977.4" dy="14">R</tspan></text><text x="969.3000000000001" y="-139.70000000000002" dominant-baseline="ideographic" fill="black" font-size="11" font-family="sans" text-anchor="end"><tspan x="969.3000000000001" dy="11">2</tspan></text><text x="977.4" y="-140.0" dominant-baseline="central" fill="black" font-size="14" font-family="sans" text-anchor="start"><tspan x="977.4" dy="14">S</tspan></text><text x="957.6" y="-186.29999999999998" dominant-baseline="central" fill="black" font-size="9" font-family="sans" text-anchor="middle"><tspan x="957.6" dy="9">VFD</tspan><tspan x="957.6" dy="9">-&gt; spindle 3kW</tspan></text><text x="321.3" y="310.3" dominant-baseline="ideographic" fill="black" font-size="11" font-family="sans" text-anchor="end"><tspan x="321.3" dy="11">1</tspan></text><text x="329.40000000000003" y="310.0" dominant-baseline="central" fill="black" font-size="14" font-family="sans" text-anchor="start"><tspan x="329.40000000000003" dy="14">A1</tspan></text><text x="452.7" y="310.3" dominant-baseline="ideographic" fill="black" font-size="11" font-family="sans" text-anchor="start"><tspan x="452.7" dy="11">1</tspan></text><text x="444.59999999999997" y="310.0" dominant-baseline="central" fill="black" font-size="14" font-family="sans" text-anchor="end"><tspan x="444.59999999999997" dy="14">A2</tspan></text><text x="390.59999999999997" y="268.2" dominant-baseline="central" fill="black" font-size="9" font-family="sans" text-anchor="middle"><tspan x="390.59999999999997" dy="9">K1 coil</tspan></text><text x="645.3000000000001" y="310.3" dominant-baseline="ideographic" fill="black" font-size="11" font-family="sans" text-anchor="end"><tspan x="645.3000000000001" dy="11">1</tspan></text><text x="653.4" y="310.0" dominant-baseline="central" fill="black" font-size="14" font-family="sans" text-anchor="start"><tspan x="653.4" dy="14">A1</tspan></text><text x="776.6999999999999" y="310.3" dominant-baseline="ideographic" fill="black" font-size="11" font-family="sans" text-anchor="start"><tspan x="776.6999999999999" dy="11">1</tspan></text><text x="768.6" y="310.0" dominant-baseline="central" fill="black" font-size="14" font-family="sans" text-anchor="end"><tspan x="768.6" dy="14">A2</tspan></text><text x="714.6" y="268.2" dominant-baseline="central" fill="black" font-size="9" font-family="sans" text-anchor="middle"><tspan x="714.6" dy="9">K2 coil</tspan></text><text x="128.70000000000002" y="760.3000000000001" dominant-baseline="ideographic" fill="black" font-size="11" font-family="sans" text-anchor="start"><tspan x="128.70000000000002" dy="11">1</tspan></text><text x="120.60000000000001" y="760.0" dominant-baseline="central" fill="black" font-size="14" font-family="sans" text-anchor="end"><tspan x="120.60000000000001" dy="14">CH1</tspan></text><text x="128.70000000000002" y="652.3000000000001" dominant-baseline="ideographic" fill="black" font-size="11" font-family="sans" text-anchor="start"><tspan x="128.70000000000002" dy="11">2</tspan></text><text x="120.60000000000001" y="652.0" dominant-baseline="central" fill="black" font-size="14" font-family="sans" text-anchor="end"><tspan x="120.60000000000001" dy="14">CH2</tspan></text><text x="147.6" y="605.6999999999999" dominant-baseline="central" fill="black" font-size="9" font-family="sans" text-anchor="middle"><tspan x="147.6" dy="9">E-STOP</tspan><tspan x="147.6" dy="9">2-channel NC</tspan></text><text x="321.3" y="760.3000000000001" dominant-baseline="ideographic" fill="black" font-size="11" font-family="sans" text-anchor="end"><tspan x="321.3" dy="11">1</tspan></text><text x="329.40000000000003" y="760.0" dominant-baseline="central" fill="black" font-size="14" font-family="sans" text-anchor="start"><tspan x="329.40000000000003" dy="14">S11</tspan></text><text x="321.3" y="565.9" dominant-baseline="ideographic" fill="black" font-size="11" font-family="sans" text-anchor="end"><tspan x="321.3" dy="11">2</tspan></text><text x="329.40000000000003" y="565.6" dominant-baseline="central" fill="black" font-size="14" font-family="sans" text-anchor="start"><tspan x="329.40000000000003" dy="14">S21</tspan></text><text x="452.7" y="760.3000000000001" dominant-baseline="ideographic" fill="black" font-size="11" font-family="sans" text-anchor="start"><tspan x="452.7" dy="11">1</tspan></text><text x="444.59999999999997" y="760.0" dominant-baseline="central" fill="black" font-size="14" font-family="sans" text-anchor="end"><tspan x="444.59999999999997" dy="14">Y1</tspan></text><text x="452.7" y="695.5" dominant-baseline="ideographic" fill="black" font-size="11" font-family="sans" text-anchor="start"><tspan x="452.7" dy="11">2</tspan></text><text x="444.59999999999997" y="695.1999999999999" dominant-baseline="central" fill="black" font-size="14" font-family="sans" text-anchor="end"><tspan x="444.59999999999997" dy="14">Y2</tspan></text><text x="452.7" y="630.6999999999999" dominant-baseline="ideographic" fill="black" font-size="11" font-family="sans" text-anchor="start"><tspan x="452.7" dy="11">3</tspan></text><text x="444.59999999999997" y="630.4" dominant-baseline="central" fill="black" font-size="14" font-family="sans" text-anchor="end"><tspan x="444.59999999999997" dy="14">23</tspan></text><text x="452.7" y="565.9" dominant-baseline="ideographic" fill="black" font-size="11" font-family="sans" text-anchor="start"><tspan x="452.7" dy="11">4</tspan></text><text x="444.59999999999997" y="565.6" dominant-baseline="central" fill="black" font-size="14" font-family="sans" text-anchor="end"><tspan x="444.59999999999997" dy="14">13</tspan></text><text x="390.59999999999997" y="519.3000000000001" dominant-baseline="central" fill="black" font-size="9" font-family="sans" text-anchor="middle"><tspan x="390.59999999999997" dy="9">PNOZ 8</tspan><tspan x="390.59999999999997" dy="9">774760</tspan></text><text x="969.3000000000001" y="760.3000000000001" dominant-baseline="ideographic" fill="black" font-size="11" font-family="sans" text-anchor="end"><tspan x="969.3000000000001" dy="11">1</tspan></text><text x="977.4" y="760.0" dominant-baseline="central" fill="black" font-size="14" font-family="sans" text-anchor="start"><tspan x="977.4" dy="14">Y1</tspan></text><text x="969.3000000000001" y="652.3000000000001" dominant-baseline="ideographic" fill="black" font-size="11" font-family="sans" text-anchor="end"><tspan x="969.3000000000001" dy="11">2</tspan></text><text x="977.4" y="652.0" dominant-baseline="central" fill="black" font-size="14" font-family="sans" text-anchor="start"><tspan x="977.4" dy="14">Y2</tspan></text><text x="957.6" y="601.1999999999999" dominant-baseline="central" fill="black" font-size="9" font-family="sans" text-anchor="middle"><tspan x="957.6" dy="9">EDM loop</tspan><tspan x="957.6" dy="9">K1/K2 mirror NC</tspan><tspan x="957.6" dy="9">+ Start</tspan></text><text x="228.6" y="761.4" dominant-baseline="ideographic" fill="black" font-size="9" font-family="sans" text-anchor="middle"><tspan x="228.6" dy="9">ch1</tspan></text><text x="714.6" y="761.4" dominant-baseline="ideographic" fill="black" font-size="9" font-family="sans" text-anchor="middle"><tspan x="714.6" dy="9">Y1-Y2 EDM</tspan></text><text x="228.6" y="-30.599999999999998" dominant-baseline="ideographic" fill="black" font-size="9" font-family="sans" text-anchor="middle"><tspan x="228.6" dy="9">L</tspan></text><text x="228.6" y="-138.6" dominant-baseline="ideographic" fill="black" font-size="9" font-family="sans" text-anchor="middle"><tspan x="228.6" dy="9">N</tspan></text><text x="412.20000000000005" y="142.4" dominant-baseline="central" fill="black" font-size="7" font-family="sans" text-anchor="middle"><tspan x="412.20000000000005" dy="7">mech</tspan></text><text x="736.1999999999999" y="142.4" dominant-baseline="central" fill="black" font-size="7" font-family="sans" text-anchor="middle"><tspan x="736.1999999999999" dy="7">mech</tspan></text><text x="545.4" y="886.4" dominant-baseline="central" fill="black" font-size="10" font-family="sans" text-anchor="middle"><tspan x="545.4" dy="10">CNC Cat-4 — safety loop: E-stop -&gt; PNOZ 8 -&gt; K1/K2 -&gt; VFD mains</tspan></text></svg>